<mxfile host="Electron" modified="2024-06-21T13:11:33.665Z" agent="Mozilla/5.0 (Windows NT 10.0; Win64; x64) AppleWebKit/537.36 (KHTML, like Gecko) draw.io/24.4.0 Chrome/120.0.6099.109 Electron/28.1.0 Safari/537.36" etag="3Sx_yFNi_taKw4tfaHVN" version="24.4.0" type="device">
  <diagram name="Seite-1" id="e3gTe7wbns6cE2BKe8TQ">
    <mxGraphModel dx="2620" dy="1055" grid="1" gridSize="10" guides="1" tooltips="1" connect="1" arrows="1" fold="1" page="1" pageScale="1" pageWidth="827" pageHeight="1169" math="0" shadow="0">
      <root>
        <mxCell id="0" />
        <mxCell id="1" parent="0" />
        <mxCell id="qcsIHLgInA1QgSfUokJL-1" value="DOJO Schüler" style="swimlane;html=1;startSize=20;fontStyle=0;collapsible=0;horizontal=0;swimlaneLine=1;swimlaneFillColor=#ffffff;strokeWidth=2;whiteSpace=wrap;" parent="1" vertex="1">
          <mxGeometry x="-380" y="140" width="1760" height="440" as="geometry" />
        </mxCell>
        <mxCell id="qcsIHLgInA1QgSfUokJL-4" value="" style="points=[[0.145,0.145,0],[0.5,0,0],[0.855,0.145,0],[1,0.5,0],[0.855,0.855,0],[0.5,1,0],[0.145,0.855,0],[0,0.5,0]];shape=mxgraph.bpmn.event;html=1;verticalLabelPosition=bottom;labelBackgroundColor=#ffffff;verticalAlign=top;align=center;perimeter=ellipsePerimeter;outlineConnect=0;aspect=fixed;outline=standard;symbol=general;" parent="qcsIHLgInA1QgSfUokJL-1" vertex="1">
          <mxGeometry x="67" y="180" width="50" height="50" as="geometry" />
        </mxCell>
        <mxCell id="qcsIHLgInA1QgSfUokJL-12" value="" style="points=[[0.25,0.25,0],[0.5,0,0],[0.75,0.25,0],[1,0.5,0],[0.75,0.75,0],[0.5,1,0],[0.25,0.75,0],[0,0.5,0]];shape=mxgraph.bpmn.gateway2;html=1;verticalLabelPosition=bottom;labelBackgroundColor=#ffffff;verticalAlign=top;align=center;perimeter=rhombusPerimeter;outlineConnect=0;outline=none;symbol=none;gwType=exclusive;" parent="qcsIHLgInA1QgSfUokJL-1" vertex="1">
          <mxGeometry x="818" y="180" width="50" height="50" as="geometry" />
        </mxCell>
        <mxCell id="qcsIHLgInA1QgSfUokJL-13" value="Anmelder ist DOJO- Schüler&amp;nbsp;" style="points=[[0.25,0,0],[0.5,0,0],[0.75,0,0],[1,0.25,0],[1,0.5,0],[1,0.75,0],[0.75,1,0],[0.5,1,0],[0.25,1,0],[0,0.75,0],[0,0.5,0],[0,0.25,0]];shape=mxgraph.bpmn.task;whiteSpace=wrap;rectStyle=rounded;size=10;html=1;container=1;expand=0;collapsible=0;taskMarker=abstract;" parent="qcsIHLgInA1QgSfUokJL-1" vertex="1">
          <mxGeometry x="898" y="255" width="120" height="80" as="geometry" />
        </mxCell>
        <mxCell id="qcsIHLgInA1QgSfUokJL-15" value="" style="edgeStyle=elbowEdgeStyle;fontSize=12;html=1;endArrow=blockThin;endFill=1;rounded=0;exitX=1;exitY=0.5;exitDx=0;exitDy=0;exitPerimeter=0;entryX=0;entryY=0.5;entryDx=0;entryDy=0;entryPerimeter=0;" parent="qcsIHLgInA1QgSfUokJL-1" source="XgZ7OTvYV7EqM5-O8hql-16" target="qcsIHLgInA1QgSfUokJL-12" edge="1">
          <mxGeometry width="160" relative="1" as="geometry">
            <mxPoint x="760.5" y="205" as="sourcePoint" />
            <mxPoint x="766" y="120" as="targetPoint" />
          </mxGeometry>
        </mxCell>
        <mxCell id="qcsIHLgInA1QgSfUokJL-28" value="angemeldet" style="edgeStyle=elbowEdgeStyle;fontSize=12;html=1;endArrow=blockThin;endFill=1;rounded=0;entryX=0;entryY=0.5;entryDx=0;entryDy=0;entryPerimeter=0;" parent="qcsIHLgInA1QgSfUokJL-1" source="qcsIHLgInA1QgSfUokJL-12" target="qcsIHLgInA1QgSfUokJL-13" edge="1">
          <mxGeometry x="0.0833" y="-19" width="160" relative="1" as="geometry">
            <mxPoint x="716" y="140" as="sourcePoint" />
            <mxPoint x="806" y="76" as="targetPoint" />
            <Array as="points">
              <mxPoint x="840" y="260" />
            </Array>
            <mxPoint x="-11" y="-4" as="offset" />
          </mxGeometry>
        </mxCell>
        <mxCell id="qcsIHLgInA1QgSfUokJL-30" value="&lt;br&gt;&lt;span style=&quot;color: rgb(0, 0, 0); font-family: Helvetica; font-size: 12px; font-style: normal; font-variant-ligatures: normal; font-variant-caps: normal; font-weight: 400; letter-spacing: normal; orphans: 2; text-align: center; text-indent: 0px; text-transform: none; widows: 2; word-spacing: 0px; -webkit-text-stroke-width: 0px; white-space: normal; background-color: rgb(251, 251, 251); text-decoration-thickness: initial; text-decoration-style: initial; text-decoration-color: initial; display: inline !important; float: none;&quot;&gt;ohne Anmeldung Verlassen&lt;/span&gt;&lt;div&gt;&lt;br/&gt;&lt;/div&gt;" style="points=[[0.145,0.145,0],[0.5,0,0],[0.855,0.145,0],[1,0.5,0],[0.855,0.855,0],[0.5,1,0],[0.145,0.855,0],[0,0.5,0]];shape=mxgraph.bpmn.event;html=1;verticalLabelPosition=bottom;labelBackgroundColor=#ffffff;verticalAlign=top;align=center;perimeter=ellipsePerimeter;outlineConnect=0;aspect=fixed;outline=end;symbol=terminate2;" parent="qcsIHLgInA1QgSfUokJL-1" vertex="1">
          <mxGeometry x="1362" y="51" width="50" height="50" as="geometry" />
        </mxCell>
        <mxCell id="qcsIHLgInA1QgSfUokJL-14" value="Option abwägen" style="points=[[0.25,0,0],[0.5,0,0],[0.75,0,0],[1,0.25,0],[1,0.5,0],[1,0.75,0],[0.75,1,0],[0.5,1,0],[0.25,1,0],[0,0.75,0],[0,0.5,0],[0,0.25,0]];shape=mxgraph.bpmn.task;whiteSpace=wrap;rectStyle=rounded;size=10;html=1;container=1;expand=0;collapsible=0;taskMarker=abstract;" parent="qcsIHLgInA1QgSfUokJL-1" vertex="1">
          <mxGeometry x="898" y="36" width="120" height="80" as="geometry" />
        </mxCell>
        <mxCell id="qcsIHLgInA1QgSfUokJL-27" value="abgelehnt" style="edgeStyle=elbowEdgeStyle;fontSize=12;html=1;endArrow=blockThin;endFill=1;rounded=0;entryX=0;entryY=0.5;entryDx=0;entryDy=0;entryPerimeter=0;" parent="qcsIHLgInA1QgSfUokJL-1" source="qcsIHLgInA1QgSfUokJL-12" target="qcsIHLgInA1QgSfUokJL-14" edge="1">
          <mxGeometry x="0.3082" y="19" width="160" relative="1" as="geometry">
            <mxPoint x="756" y="166" as="sourcePoint" />
            <mxPoint x="816" y="166" as="targetPoint" />
            <Array as="points">
              <mxPoint x="840" y="130" />
            </Array>
            <mxPoint x="-11" y="3" as="offset" />
          </mxGeometry>
        </mxCell>
        <mxCell id="qcsIHLgInA1QgSfUokJL-31" value="" style="edgeStyle=elbowEdgeStyle;fontSize=12;html=1;endArrow=blockThin;endFill=1;rounded=0;exitX=1;exitY=0.5;exitDx=0;exitDy=0;exitPerimeter=0;entryX=0;entryY=0.5;entryDx=0;entryDy=0;entryPerimeter=0;" parent="qcsIHLgInA1QgSfUokJL-1" source="qcsIHLgInA1QgSfUokJL-14" target="qcsIHLgInA1QgSfUokJL-30" edge="1">
          <mxGeometry width="160" relative="1" as="geometry">
            <mxPoint x="596" y="200" as="sourcePoint" />
            <mxPoint x="1146" y="76" as="targetPoint" />
            <Array as="points" />
          </mxGeometry>
        </mxCell>
        <mxCell id="At_IgEc15yCGYcTw2sl6-193" style="edgeStyle=orthogonalEdgeStyle;rounded=0;orthogonalLoop=1;jettySize=auto;html=1;exitX=1;exitY=0.5;exitDx=0;exitDy=0;exitPerimeter=0;entryX=0;entryY=0.5;entryDx=0;entryDy=0;entryPerimeter=0;" parent="qcsIHLgInA1QgSfUokJL-1" source="qcsIHLgInA1QgSfUokJL-13" target="At_IgEc15yCGYcTw2sl6-194" edge="1">
          <mxGeometry relative="1" as="geometry">
            <mxPoint x="1091" y="295" as="targetPoint" />
          </mxGeometry>
        </mxCell>
        <mxCell id="At_IgEc15yCGYcTw2sl6-194" value="" style="points=[[0.145,0.145,0],[0.5,0,0],[0.855,0.145,0],[1,0.5,0],[0.855,0.855,0],[0.5,1,0],[0.145,0.855,0],[0,0.5,0]];shape=mxgraph.bpmn.event;html=1;verticalLabelPosition=bottom;labelBackgroundColor=#ffffff;verticalAlign=top;align=center;perimeter=ellipsePerimeter;outlineConnect=0;aspect=fixed;outline=catching;symbol=message;" parent="qcsIHLgInA1QgSfUokJL-1" vertex="1">
          <mxGeometry x="1102" y="265" width="60" height="60" as="geometry" />
        </mxCell>
        <mxCell id="At_IgEc15yCGYcTw2sl6-195" value="" style="points=[[0.25,0.25,0],[0.5,0,0],[0.75,0.25,0],[1,0.5,0],[0.75,0.75,0],[0.5,1,0],[0.25,0.75,0],[0,0.5,0]];shape=mxgraph.bpmn.gateway2;html=1;verticalLabelPosition=bottom;labelBackgroundColor=#ffffff;verticalAlign=top;align=center;perimeter=rhombusPerimeter;outlineConnect=0;outline=none;symbol=none;gwType=exclusive;" parent="qcsIHLgInA1QgSfUokJL-1" vertex="1">
          <mxGeometry x="1233" y="270" width="50" height="50" as="geometry" />
        </mxCell>
        <mxCell id="At_IgEc15yCGYcTw2sl6-196" style="edgeStyle=orthogonalEdgeStyle;rounded=0;orthogonalLoop=1;jettySize=auto;html=1;exitX=1;exitY=0.5;exitDx=0;exitDy=0;exitPerimeter=0;entryX=0;entryY=0.5;entryDx=0;entryDy=0;entryPerimeter=0;" parent="qcsIHLgInA1QgSfUokJL-1" source="At_IgEc15yCGYcTw2sl6-194" target="At_IgEc15yCGYcTw2sl6-195" edge="1">
          <mxGeometry relative="1" as="geometry" />
        </mxCell>
        <mxCell id="At_IgEc15yCGYcTw2sl6-203" style="edgeStyle=orthogonalEdgeStyle;rounded=0;orthogonalLoop=1;jettySize=auto;html=1;exitX=1;exitY=0.5;exitDx=0;exitDy=0;exitPerimeter=0;entryX=0.5;entryY=1;entryDx=0;entryDy=0;entryPerimeter=0;" parent="qcsIHLgInA1QgSfUokJL-1" source="At_IgEc15yCGYcTw2sl6-197" target="At_IgEc15yCGYcTw2sl6-201" edge="1">
          <mxGeometry relative="1" as="geometry">
            <mxPoint x="1451" y="320" as="targetPoint" />
          </mxGeometry>
        </mxCell>
        <mxCell id="At_IgEc15yCGYcTw2sl6-197" value="&lt;span style=&quot;text-wrap: nowrap; background-color: rgb(255, 255, 255);&quot;&gt;Schüler melden &lt;br&gt;sich an&lt;/span&gt;" style="points=[[0.25,0,0],[0.5,0,0],[0.75,0,0],[1,0.25,0],[1,0.5,0],[1,0.75,0],[0.75,1,0],[0.5,1,0],[0.25,1,0],[0,0.75,0],[0,0.5,0],[0,0.25,0]];shape=mxgraph.bpmn.task;whiteSpace=wrap;rectStyle=rounded;size=10;html=1;container=1;expand=0;collapsible=0;taskMarker=abstract;" parent="qcsIHLgInA1QgSfUokJL-1" vertex="1">
          <mxGeometry x="1313" y="325" width="120" height="80" as="geometry" />
        </mxCell>
        <mxCell id="At_IgEc15yCGYcTw2sl6-198" style="edgeStyle=orthogonalEdgeStyle;rounded=0;orthogonalLoop=1;jettySize=auto;html=1;exitX=0.5;exitY=1;exitDx=0;exitDy=0;exitPerimeter=0;entryX=0;entryY=0.5;entryDx=0;entryDy=0;entryPerimeter=0;" parent="qcsIHLgInA1QgSfUokJL-1" source="At_IgEc15yCGYcTw2sl6-195" target="At_IgEc15yCGYcTw2sl6-197" edge="1">
          <mxGeometry relative="1" as="geometry" />
        </mxCell>
        <mxCell id="At_IgEc15yCGYcTw2sl6-200" value="nicht teilnehmen möchte" style="points=[[0.25,0,0],[0.5,0,0],[0.75,0,0],[1,0.25,0],[1,0.5,0],[1,0.75,0],[0.75,1,0],[0.5,1,0],[0.25,1,0],[0,0.75,0],[0,0.5,0],[0,0.25,0]];shape=mxgraph.bpmn.task;whiteSpace=wrap;rectStyle=rounded;size=10;html=1;container=1;expand=0;collapsible=0;taskMarker=abstract;" parent="qcsIHLgInA1QgSfUokJL-1" vertex="1">
          <mxGeometry x="1312.9985714285715" y="210.0042857142858" width="120" height="80" as="geometry" />
        </mxCell>
        <mxCell id="At_IgEc15yCGYcTw2sl6-199" style="edgeStyle=orthogonalEdgeStyle;rounded=0;orthogonalLoop=1;jettySize=auto;html=1;exitX=0.5;exitY=0;exitDx=0;exitDy=0;exitPerimeter=0;" parent="qcsIHLgInA1QgSfUokJL-1" source="At_IgEc15yCGYcTw2sl6-195" target="At_IgEc15yCGYcTw2sl6-200" edge="1">
          <mxGeometry relative="1" as="geometry">
            <mxPoint x="1216.4285714285716" y="269.7142857142858" as="targetPoint" />
          </mxGeometry>
        </mxCell>
        <mxCell id="At_IgEc15yCGYcTw2sl6-201" value="" style="points=[[0.25,0.25,0],[0.5,0,0],[0.75,0.25,0],[1,0.5,0],[0.75,0.75,0],[0.5,1,0],[0.25,0.75,0],[0,0.5,0]];shape=mxgraph.bpmn.gateway2;html=1;verticalLabelPosition=bottom;labelBackgroundColor=#ffffff;verticalAlign=top;align=center;perimeter=rhombusPerimeter;outlineConnect=0;outline=none;symbol=none;gwType=exclusive;" parent="qcsIHLgInA1QgSfUokJL-1" vertex="1">
          <mxGeometry x="1470" y="270" width="50" height="50" as="geometry" />
        </mxCell>
        <mxCell id="At_IgEc15yCGYcTw2sl6-202" style="edgeStyle=orthogonalEdgeStyle;rounded=0;orthogonalLoop=1;jettySize=auto;html=1;exitX=1;exitY=0.5;exitDx=0;exitDy=0;exitPerimeter=0;entryX=0.5;entryY=0;entryDx=0;entryDy=0;entryPerimeter=0;" parent="qcsIHLgInA1QgSfUokJL-1" source="At_IgEc15yCGYcTw2sl6-200" target="At_IgEc15yCGYcTw2sl6-201" edge="1">
          <mxGeometry relative="1" as="geometry" />
        </mxCell>
        <mxCell id="At_IgEc15yCGYcTw2sl6-204" style="edgeStyle=orthogonalEdgeStyle;rounded=0;orthogonalLoop=1;jettySize=auto;html=1;exitX=1;exitY=0.5;exitDx=0;exitDy=0;exitPerimeter=0;" parent="qcsIHLgInA1QgSfUokJL-1" source="At_IgEc15yCGYcTw2sl6-201" target="fI3-ozC-W1uijajEzl0u-11" edge="1">
          <mxGeometry relative="1" as="geometry">
            <Array as="points">
              <mxPoint x="1610" y="295" />
              <mxPoint x="1610" y="295" />
            </Array>
          </mxGeometry>
        </mxCell>
        <mxCell id="f7bu9HOFhvf2K83We35n-1" value="DOJO Webseite aufrufen" style="points=[[0.25,0,0],[0.5,0,0],[0.75,0,0],[1,0.25,0],[1,0.5,0],[1,0.75,0],[0.75,1,0],[0.5,1,0],[0.25,1,0],[0,0.75,0],[0,0.5,0],[0,0.25,0]];shape=mxgraph.bpmn.task;whiteSpace=wrap;rectStyle=rounded;size=10;html=1;container=1;expand=0;collapsible=0;taskMarker=abstract;" parent="qcsIHLgInA1QgSfUokJL-1" vertex="1">
          <mxGeometry x="150" y="165" width="120" height="80" as="geometry" />
        </mxCell>
        <mxCell id="f7bu9HOFhvf2K83We35n-2" value="" style="edgeStyle=elbowEdgeStyle;fontSize=12;html=1;endArrow=blockThin;endFill=1;rounded=0;entryX=0;entryY=0.5;entryDx=0;entryDy=0;entryPerimeter=0;" parent="qcsIHLgInA1QgSfUokJL-1" source="qcsIHLgInA1QgSfUokJL-4" target="f7bu9HOFhvf2K83We35n-1" edge="1">
          <mxGeometry width="160" relative="1" as="geometry">
            <mxPoint x="146" y="245" as="sourcePoint" />
            <mxPoint x="30" y="380" as="targetPoint" />
          </mxGeometry>
        </mxCell>
        <mxCell id="f7bu9HOFhvf2K83We35n-5" value="" style="edgeStyle=elbowEdgeStyle;fontSize=12;html=1;endArrow=blockThin;endFill=1;rounded=0;entryX=0;entryY=0.5;entryDx=0;entryDy=0;entryPerimeter=0;exitX=1;exitY=0.5;exitDx=0;exitDy=0;exitPerimeter=0;" parent="qcsIHLgInA1QgSfUokJL-1" source="XgZ7OTvYV7EqM5-O8hql-10" target="XgZ7OTvYV7EqM5-O8hql-2" edge="1">
          <mxGeometry width="160" relative="1" as="geometry">
            <mxPoint x="127" y="215" as="sourcePoint" />
            <mxPoint x="160" y="215" as="targetPoint" />
          </mxGeometry>
        </mxCell>
        <mxCell id="XgZ7OTvYV7EqM5-O8hql-10" value="Sendet Anmeldeformular von Webseite" style="points=[[0.25,0,0],[0.5,0,0],[0.75,0,0],[1,0.25,0],[1,0.5,0],[1,0.75,0],[0.75,1,0],[0.5,1,0],[0.25,1,0],[0,0.75,0],[0,0.5,0],[0,0.25,0]];shape=mxgraph.bpmn.task;whiteSpace=wrap;rectStyle=rounded;size=10;html=1;container=1;expand=0;collapsible=0;taskMarker=abstract;" parent="qcsIHLgInA1QgSfUokJL-1" vertex="1">
          <mxGeometry x="300" y="165" width="120" height="80" as="geometry" />
        </mxCell>
        <mxCell id="XgZ7OTvYV7EqM5-O8hql-2" value="" style="points=[[0.145,0.145,0],[0.5,0,0],[0.855,0.145,0],[1,0.5,0],[0.855,0.855,0],[0.5,1,0],[0.145,0.855,0],[0,0.5,0]];shape=mxgraph.bpmn.event;html=1;verticalLabelPosition=bottom;labelBackgroundColor=#ffffff;verticalAlign=top;align=center;perimeter=ellipsePerimeter;outlineConnect=0;aspect=fixed;outline=throwing;symbol=message;" parent="qcsIHLgInA1QgSfUokJL-1" vertex="1">
          <mxGeometry x="450" y="175.5" width="59" height="59" as="geometry" />
        </mxCell>
        <mxCell id="XgZ7OTvYV7EqM5-O8hql-17" value="&lt;span style=&quot;text-wrap: nowrap; background-color: rgb(255, 255, 255);&quot;&gt;Antwort erhalten&lt;/span&gt;" style="text;html=1;align=center;verticalAlign=middle;whiteSpace=wrap;rounded=0;" parent="qcsIHLgInA1QgSfUokJL-1" vertex="1">
          <mxGeometry x="700" y="150" width="60" height="30" as="geometry" />
        </mxCell>
        <mxCell id="XgZ7OTvYV7EqM5-O8hql-16" value="" style="points=[[0.145,0.145,0],[0.5,0,0],[0.855,0.145,0],[1,0.5,0],[0.855,0.855,0],[0.5,1,0],[0.145,0.855,0],[0,0.5,0]];shape=mxgraph.bpmn.event;html=1;verticalLabelPosition=bottom;labelBackgroundColor=#ffffff;verticalAlign=top;align=center;perimeter=ellipsePerimeter;outlineConnect=0;aspect=fixed;outline=boundInt;symbol=message;" parent="qcsIHLgInA1QgSfUokJL-1" vertex="1">
          <mxGeometry x="730.5" y="180" width="50" height="50" as="geometry" />
        </mxCell>
        <mxCell id="fI3-ozC-W1uijajEzl0u-11" value="&lt;div&gt;Angemeldet&lt;br&gt;Teilnahme bestätigt&lt;/div&gt;" style="points=[[0.145,0.145,0],[0.5,0,0],[0.855,0.145,0],[1,0.5,0],[0.855,0.855,0],[0.5,1,0],[0.145,0.855,0],[0,0.5,0]];shape=mxgraph.bpmn.event;html=1;verticalLabelPosition=bottom;labelBackgroundColor=#ffffff;verticalAlign=top;align=center;perimeter=ellipsePerimeter;outlineConnect=0;aspect=fixed;outline=end;symbol=terminate2;" vertex="1" parent="qcsIHLgInA1QgSfUokJL-1">
          <mxGeometry x="1680" y="270" width="50" height="50" as="geometry" />
        </mxCell>
        <mxCell id="qcsIHLgInA1QgSfUokJL-2" value="DOJO-Schule" style="swimlane;html=1;startSize=20;fontStyle=0;collapsible=0;horizontal=0;swimlaneLine=1;swimlaneFillColor=#ffffff;strokeWidth=2;whiteSpace=wrap;" parent="1" vertex="1">
          <mxGeometry x="-380" y="694" width="1760" height="1270" as="geometry" />
        </mxCell>
        <mxCell id="At_IgEc15yCGYcTw2sl6-47" value="Sensei" style="swimlane;html=1;startSize=20;fontStyle=0;collapsible=0;horizontal=0;swimlaneLine=1;swimlaneFillColor=#ffffff;strokeWidth=2;whiteSpace=wrap;" parent="qcsIHLgInA1QgSfUokJL-2" vertex="1">
          <mxGeometry x="20" width="1740" height="1016" as="geometry" />
        </mxCell>
        <mxCell id="At_IgEc15yCGYcTw2sl6-48" value="" style="swimlane;html=1;startSize=20;fontStyle=0;collapsible=0;horizontal=0;swimlaneLine=0;fillColor=none;whiteSpace=wrap;" parent="At_IgEc15yCGYcTw2sl6-47" vertex="1">
          <mxGeometry x="30" y="6" width="1720" height="1016" as="geometry" />
        </mxCell>
        <mxCell id="At_IgEc15yCGYcTw2sl6-117" value="" style="points=[[0.25,0,0],[0.5,0,0],[0.75,0,0],[1,0.25,0],[1,0.5,0],[1,0.75,0],[0.75,1,0],[0.5,1,0],[0.25,1,0],[0,0.75,0],[0,0.5,0],[0,0.25,0]];shape=mxgraph.bpmn.task;whiteSpace=wrap;rectStyle=rounded;size=10;html=1;container=1;expand=0;collapsible=0;bpmnShapeType=call;" parent="At_IgEc15yCGYcTw2sl6-48" vertex="1">
          <mxGeometry x="360" y="20" width="750" height="330" as="geometry" />
        </mxCell>
        <mxCell id="At_IgEc15yCGYcTw2sl6-119" value="Auftrag erhalten" style="points=[[0.145,0.145,0],[0.5,0,0],[0.855,0.145,0],[1,0.5,0],[0.855,0.855,0],[0.5,1,0],[0.145,0.855,0],[0,0.5,0]];shape=mxgraph.bpmn.event;html=1;verticalLabelPosition=bottom;labelBackgroundColor=#ffffff;verticalAlign=top;align=center;perimeter=ellipsePerimeter;outlineConnect=0;aspect=fixed;outline=standard;symbol=general;" parent="At_IgEc15yCGYcTw2sl6-117" vertex="1">
          <mxGeometry x="49.996554810829885" y="37.477500000000006" width="34.370069867027276" height="34.370069867027276" as="geometry" />
        </mxCell>
        <mxCell id="At_IgEc15yCGYcTw2sl6-120" style="edgeStyle=orthogonalEdgeStyle;rounded=0;orthogonalLoop=1;jettySize=auto;html=1;exitX=0.5;exitY=1;exitDx=0;exitDy=0;exitPerimeter=0;" parent="At_IgEc15yCGYcTw2sl6-117" source="At_IgEc15yCGYcTw2sl6-63" target="At_IgEc15yCGYcTw2sl6-52" edge="1">
          <mxGeometry relative="1" as="geometry" />
        </mxCell>
        <mxCell id="At_IgEc15yCGYcTw2sl6-63" value="&lt;br&gt;&lt;span style=&quot;color: rgb(0, 0, 0); font-family: Helvetica; font-size: 12px; font-style: normal; font-variant-ligatures: normal; font-variant-caps: normal; font-weight: 400; letter-spacing: normal; orphans: 2; text-align: center; text-indent: 0px; text-transform: none; widows: 2; word-spacing: 0px; -webkit-text-stroke-width: 0px; white-space: normal; background-color: rgb(251, 251, 251); text-decoration-thickness: initial; text-decoration-style: initial; text-decoration-color: initial; display: inline !important; float: none;&quot;&gt;Über&lt;/span&gt;&lt;span style=&quot;text-wrap: nowrap;&quot;&gt;prüft die&lt;br&gt;&amp;nbsp;Voraussetzungen &lt;br&gt;des Schülers&lt;/span&gt;&lt;div&gt;&lt;br&gt;&lt;/div&gt;" style="points=[[0.25,0,0],[0.5,0,0],[0.75,0,0],[1,0.25,0],[1,0.5,0],[1,0.75,0],[0.75,1,0],[0.5,1,0],[0.25,1,0],[0,0.75,0],[0,0.5,0],[0,0.25,0]];shape=mxgraph.bpmn.task;whiteSpace=wrap;rectStyle=rounded;size=10;html=1;container=1;expand=0;collapsible=0;taskMarker=abstract;isLoopSub=1;" parent="At_IgEc15yCGYcTw2sl6-117" vertex="1">
          <mxGeometry x="148.41304347826087" y="22.166666666666668" width="150" height="65" as="geometry" />
        </mxCell>
        <mxCell id="At_IgEc15yCGYcTw2sl6-51" value="" style="edgeStyle=elbowEdgeStyle;fontSize=12;html=1;endArrow=blockThin;endFill=1;rounded=0;entryX=0;entryY=0.5;entryDx=0;entryDy=0;entryPerimeter=0;exitX=1;exitY=0.5;exitDx=0;exitDy=0;exitPerimeter=0;" parent="At_IgEc15yCGYcTw2sl6-117" source="At_IgEc15yCGYcTw2sl6-119" target="At_IgEc15yCGYcTw2sl6-63" edge="1">
          <mxGeometry width="160" relative="1" as="geometry">
            <mxPoint x="78.85232993935868" y="26.427356209150446" as="sourcePoint" />
            <mxPoint x="209.4130434782612" y="45.118333333333425" as="targetPoint" />
            <Array as="points">
              <mxPoint x="144.33962264150944" y="39.6" />
            </Array>
          </mxGeometry>
        </mxCell>
        <mxCell id="At_IgEc15yCGYcTw2sl6-52" value="Aufname möglich&amp;nbsp;" style="points=[[0.25,0.25,0],[0.5,0,0],[0.75,0.25,0],[1,0.5,0],[0.75,0.75,0],[0.5,1,0],[0.25,0.75,0],[0,0.5,0]];shape=mxgraph.bpmn.gateway2;html=1;verticalLabelPosition=bottom;labelBackgroundColor=#ffffff;verticalAlign=top;align=center;perimeter=rhombusPerimeter;outlineConnect=0;outline=none;symbol=none;gwType=exclusive;" parent="At_IgEc15yCGYcTw2sl6-117" vertex="1">
          <mxGeometry x="198.4090021382751" y="120" width="50" height="50" as="geometry" />
        </mxCell>
        <mxCell id="At_IgEc15yCGYcTw2sl6-55" value="" style="points=[[0.25,0.25,0],[0.5,0,0],[0.75,0.25,0],[1,0.5,0],[0.75,0.75,0],[0.5,1,0],[0.25,0.75,0],[0,0.5,0]];shape=mxgraph.bpmn.gateway2;html=1;verticalLabelPosition=bottom;labelBackgroundColor=#ffffff;verticalAlign=top;align=center;perimeter=rhombusPerimeter;outlineConnect=0;outline=none;symbol=none;gwType=exclusive;" parent="At_IgEc15yCGYcTw2sl6-117" vertex="1">
          <mxGeometry x="487.7204062722738" y="120" width="50" height="50" as="geometry" />
        </mxCell>
        <mxCell id="At_IgEc15yCGYcTw2sl6-56" style="edgeStyle=orthogonalEdgeStyle;rounded=0;orthogonalLoop=1;jettySize=auto;html=1;entryX=0;entryY=0.5;entryDx=0;entryDy=0;entryPerimeter=0;exitX=1;exitY=0.5;exitDx=0;exitDy=0;exitPerimeter=0;" parent="At_IgEc15yCGYcTw2sl6-117" source="At_IgEc15yCGYcTw2sl6-52" target="At_IgEc15yCGYcTw2sl6-55" edge="1">
          <mxGeometry relative="1" as="geometry">
            <mxPoint x="228.26086956521735" y="27.500000000000004" as="sourcePoint" />
            <mxPoint x="146.7391304347826" y="77.91666666666669" as="targetPoint" />
          </mxGeometry>
        </mxCell>
        <mxCell id="At_IgEc15yCGYcTw2sl6-57" value="ablehnen" style="edgeLabel;html=1;align=center;verticalAlign=middle;resizable=0;points=[];" parent="At_IgEc15yCGYcTw2sl6-56" vertex="1" connectable="0">
          <mxGeometry x="-0.1451" y="3" relative="1" as="geometry">
            <mxPoint x="4" y="-10" as="offset" />
          </mxGeometry>
        </mxCell>
        <mxCell id="At_IgEc15yCGYcTw2sl6-59" value="Schüler zum Training hinzufügen" style="points=[[0.25,0,0],[0.5,0,0],[0.75,0,0],[1,0.25,0],[1,0.5,0],[1,0.75,0],[0.75,1,0],[0.5,1,0],[0.25,1,0],[0,0.75,0],[0,0.5,0],[0,0.25,0]];shape=mxgraph.bpmn.task;whiteSpace=wrap;rectStyle=rounded;size=10;html=1;container=1;expand=0;collapsible=0;taskMarker=abstract;" parent="At_IgEc15yCGYcTw2sl6-117" vertex="1">
          <mxGeometry x="437.72" y="223" width="150" height="65" as="geometry" />
        </mxCell>
        <mxCell id="At_IgEc15yCGYcTw2sl6-61" style="edgeStyle=orthogonalEdgeStyle;rounded=0;orthogonalLoop=1;jettySize=auto;html=1;exitX=0.5;exitY=0;exitDx=0;exitDy=0;exitPerimeter=0;entryX=0.5;entryY=1;entryDx=0;entryDy=0;entryPerimeter=0;" parent="At_IgEc15yCGYcTw2sl6-117" source="At_IgEc15yCGYcTw2sl6-59" target="At_IgEc15yCGYcTw2sl6-55" edge="1">
          <mxGeometry relative="1" as="geometry" />
        </mxCell>
        <mxCell id="At_IgEc15yCGYcTw2sl6-54" value="Anmeldung genehmigen" style="points=[[0.25,0,0],[0.5,0,0],[0.75,0,0],[1,0.25,0],[1,0.5,0],[1,0.75,0],[0.75,1,0],[0.5,1,0],[0.25,1,0],[0,0.75,0],[0,0.5,0],[0,0.25,0]];shape=mxgraph.bpmn.task;whiteSpace=wrap;rectStyle=rounded;size=10;html=1;container=1;expand=0;collapsible=0;taskMarker=abstract;" parent="At_IgEc15yCGYcTw2sl6-117" vertex="1">
          <mxGeometry x="148.40769779044908" y="223.00000000000003" width="150" height="65" as="geometry" />
        </mxCell>
        <mxCell id="At_IgEc15yCGYcTw2sl6-121" style="edgeStyle=orthogonalEdgeStyle;rounded=0;orthogonalLoop=1;jettySize=auto;html=1;exitX=0.5;exitY=1;exitDx=0;exitDy=0;exitPerimeter=0;entryX=0.5;entryY=0;entryDx=0;entryDy=0;entryPerimeter=0;" parent="At_IgEc15yCGYcTw2sl6-117" source="At_IgEc15yCGYcTw2sl6-52" target="At_IgEc15yCGYcTw2sl6-54" edge="1">
          <mxGeometry relative="1" as="geometry">
            <Array as="points">
              <mxPoint x="223" y="180" />
              <mxPoint x="223" y="180" />
            </Array>
          </mxGeometry>
        </mxCell>
        <mxCell id="At_IgEc15yCGYcTw2sl6-122" style="edgeStyle=orthogonalEdgeStyle;rounded=0;orthogonalLoop=1;jettySize=auto;html=1;exitX=1;exitY=0.5;exitDx=0;exitDy=0;exitPerimeter=0;entryX=0;entryY=0.5;entryDx=0;entryDy=0;entryPerimeter=0;" parent="At_IgEc15yCGYcTw2sl6-117" source="At_IgEc15yCGYcTw2sl6-54" target="At_IgEc15yCGYcTw2sl6-59" edge="1">
          <mxGeometry relative="1" as="geometry" />
        </mxCell>
        <mxCell id="At_IgEc15yCGYcTw2sl6-53" value="Studenten informieren" style="points=[[0.25,0,0],[0.5,0,0],[0.75,0,0],[1,0.25,0],[1,0.5,0],[1,0.75,0],[0.75,1,0],[0.5,1,0],[0.25,1,0],[0,0.75,0],[0,0.5,0],[0,0.25,0]];shape=mxgraph.bpmn.task;whiteSpace=wrap;rectStyle=rounded;size=10;html=1;container=1;expand=0;collapsible=0;taskMarker=abstract;" parent="At_IgEc15yCGYcTw2sl6-117" vertex="1">
          <mxGeometry x="438.17925873129013" y="22.166666666666668" width="150" height="65" as="geometry" />
        </mxCell>
        <mxCell id="At_IgEc15yCGYcTw2sl6-124" style="edgeStyle=orthogonalEdgeStyle;rounded=0;orthogonalLoop=1;jettySize=auto;html=1;exitX=0.5;exitY=0;exitDx=0;exitDy=0;exitPerimeter=0;entryX=0.5;entryY=1;entryDx=0;entryDy=0;entryPerimeter=0;" parent="At_IgEc15yCGYcTw2sl6-117" source="At_IgEc15yCGYcTw2sl6-55" target="At_IgEc15yCGYcTw2sl6-53" edge="1">
          <mxGeometry relative="1" as="geometry" />
        </mxCell>
        <mxCell id="At_IgEc15yCGYcTw2sl6-152" value="DOJO DB" style="shape=datastore;html=1;labelPosition=center;verticalLabelPosition=bottom;align=center;verticalAlign=top;" parent="At_IgEc15yCGYcTw2sl6-117" vertex="1">
          <mxGeometry x="660" y="230" width="70" height="40" as="geometry" />
        </mxCell>
        <mxCell id="At_IgEc15yCGYcTw2sl6-154" value="" style="dashed=1;dashPattern=8 4;endArrow=blockThin;endFill=1;startArrow=oval;startFill=0;endSize=6;startSize=4;html=1;rounded=0;exitX=1;exitY=0.5;exitDx=0;exitDy=0;exitPerimeter=0;entryX=0;entryY=0.7;entryDx=0;entryDy=0;" parent="At_IgEc15yCGYcTw2sl6-117" source="At_IgEc15yCGYcTw2sl6-59" target="At_IgEc15yCGYcTw2sl6-152" edge="1">
          <mxGeometry width="160" relative="1" as="geometry">
            <mxPoint x="177.75" y="396.00000000000006" as="sourcePoint" />
            <mxPoint x="421.75" y="396.00000000000006" as="targetPoint" />
            <Array as="points" />
          </mxGeometry>
        </mxCell>
        <mxCell id="XgZ7OTvYV7EqM5-O8hql-13" value="" style="points=[[0.145,0.145,0],[0.5,0,0],[0.855,0.145,0],[1,0.5,0],[0.855,0.855,0],[0.5,1,0],[0.145,0.855,0],[0,0.5,0]];shape=mxgraph.bpmn.event;html=1;verticalLabelPosition=bottom;labelBackgroundColor=#ffffff;verticalAlign=top;align=center;perimeter=ellipsePerimeter;outlineConnect=0;aspect=fixed;outline=throwing;symbol=message;" parent="At_IgEc15yCGYcTw2sl6-117" vertex="1">
          <mxGeometry x="326" y="25.170000000000073" width="59" height="59" as="geometry" />
        </mxCell>
        <mxCell id="qcsIHLgInA1QgSfUokJL-45" value="" style="dashed=1;dashPattern=8 4;endArrow=blockThin;endFill=1;startArrow=oval;startFill=0;endSize=6;startSize=4;html=1;rounded=0;exitX=0;exitY=0.5;exitDx=0;exitDy=0;exitPerimeter=0;entryX=1;entryY=0.5;entryDx=0;entryDy=0;entryPerimeter=0;" parent="At_IgEc15yCGYcTw2sl6-117" source="At_IgEc15yCGYcTw2sl6-53" target="XgZ7OTvYV7EqM5-O8hql-13" edge="1">
          <mxGeometry width="160" relative="1" as="geometry">
            <mxPoint x="300" y="-285" as="sourcePoint" />
            <mxPoint x="300" y="-30" as="targetPoint" />
            <Array as="points" />
          </mxGeometry>
        </mxCell>
        <mxCell id="At_IgEc15yCGYcTw2sl6-111" value="Verantwortlich für Aufgaben" style="points=[[0.25,0,0],[0.5,0,0],[0.75,0,0],[1,0.25,0],[1,0.5,0],[1,0.75,0],[0.75,1,0],[0.5,1,0],[0.25,1,0],[0,0.75,0],[0,0.5,0],[0,0.25,0]];shape=mxgraph.bpmn.task;whiteSpace=wrap;rectStyle=rounded;size=10;html=1;container=1;expand=0;collapsible=0;taskMarker=abstract;" parent="At_IgEc15yCGYcTw2sl6-48" vertex="1">
          <mxGeometry x="60" y="395" width="80" height="80" as="geometry" />
        </mxCell>
        <mxCell id="At_IgEc15yCGYcTw2sl6-113" value="" style="points=[[0.25,0.25,0],[0.5,0,0],[0.75,0.25,0],[1,0.5,0],[0.75,0.75,0],[0.5,1,0],[0.25,0.75,0],[0,0.5,0]];shape=mxgraph.bpmn.gateway2;html=1;verticalLabelPosition=bottom;labelBackgroundColor=#ffffff;verticalAlign=top;align=center;perimeter=rhombusPerimeter;outlineConnect=0;outline=none;symbol=none;gwType=exclusive;" parent="At_IgEc15yCGYcTw2sl6-48" vertex="1">
          <mxGeometry x="221" y="410" width="50" height="50" as="geometry" />
        </mxCell>
        <mxCell id="At_IgEc15yCGYcTw2sl6-114" style="edgeStyle=orthogonalEdgeStyle;rounded=0;orthogonalLoop=1;jettySize=auto;html=1;exitX=0.5;exitY=0;exitDx=0;exitDy=0;exitPerimeter=0;entryX=0.001;entryY=0.427;entryDx=0;entryDy=0;entryPerimeter=0;" parent="At_IgEc15yCGYcTw2sl6-48" source="At_IgEc15yCGYcTw2sl6-113" target="At_IgEc15yCGYcTw2sl6-117" edge="1">
          <mxGeometry relative="1" as="geometry">
            <mxPoint x="380.98000000000025" y="164.2900000000002" as="targetPoint" />
          </mxGeometry>
        </mxCell>
        <mxCell id="At_IgEc15yCGYcTw2sl6-304" style="edgeStyle=orthogonalEdgeStyle;rounded=0;orthogonalLoop=1;jettySize=auto;html=1;exitX=1;exitY=0.5;exitDx=0;exitDy=0;exitPerimeter=0;entryX=0;entryY=0.5;entryDx=0;entryDy=0;entryPerimeter=0;" parent="At_IgEc15yCGYcTw2sl6-48" source="At_IgEc15yCGYcTw2sl6-127" target="At_IgEc15yCGYcTw2sl6-173" edge="1">
          <mxGeometry relative="1" as="geometry">
            <mxPoint x="1460" y="356" as="targetPoint" />
            <Array as="points">
              <mxPoint x="750" y="435" />
            </Array>
          </mxGeometry>
        </mxCell>
        <mxCell id="At_IgEc15yCGYcTw2sl6-127" value="hält einen Kurs ab" style="points=[[0.25,0,0],[0.5,0,0],[0.75,0,0],[1,0.25,0],[1,0.5,0],[1,0.75,0],[0.75,1,0],[0.5,1,0],[0.25,1,0],[0,0.75,0],[0,0.5,0],[0,0.25,0]];shape=mxgraph.bpmn.task;whiteSpace=wrap;rectStyle=rounded;size=10;html=1;container=1;expand=0;collapsible=0;taskMarker=abstract;" parent="At_IgEc15yCGYcTw2sl6-48" vertex="1">
          <mxGeometry x="670" y="403" width="120" height="64" as="geometry" />
        </mxCell>
        <mxCell id="At_IgEc15yCGYcTw2sl6-130" style="edgeStyle=orthogonalEdgeStyle;rounded=0;orthogonalLoop=1;jettySize=auto;html=1;exitX=1;exitY=0.5;exitDx=0;exitDy=0;exitPerimeter=0;" parent="At_IgEc15yCGYcTw2sl6-48" source="At_IgEc15yCGYcTw2sl6-113" target="At_IgEc15yCGYcTw2sl6-127" edge="1">
          <mxGeometry relative="1" as="geometry">
            <mxPoint x="470" y="460" as="targetPoint" />
            <Array as="points">
              <mxPoint x="340" y="435" />
              <mxPoint x="340" y="435" />
            </Array>
          </mxGeometry>
        </mxCell>
        <mxCell id="At_IgEc15yCGYcTw2sl6-139" style="edgeStyle=orthogonalEdgeStyle;rounded=0;orthogonalLoop=1;jettySize=auto;html=1;exitX=0.5;exitY=1;exitDx=0;exitDy=0;exitPerimeter=0;entryX=0;entryY=0.5;entryDx=0;entryDy=0;entryPerimeter=0;" parent="At_IgEc15yCGYcTw2sl6-48" source="At_IgEc15yCGYcTw2sl6-113" target="At_IgEc15yCGYcTw2sl6-156" edge="1">
          <mxGeometry relative="1" as="geometry" />
        </mxCell>
        <mxCell id="fI3-ozC-W1uijajEzl0u-10" style="edgeStyle=orthogonalEdgeStyle;rounded=0;orthogonalLoop=1;jettySize=auto;html=1;" edge="1" parent="At_IgEc15yCGYcTw2sl6-48" source="At_IgEc15yCGYcTw2sl6-143" target="fI3-ozC-W1uijajEzl0u-9">
          <mxGeometry relative="1" as="geometry" />
        </mxCell>
        <mxCell id="At_IgEc15yCGYcTw2sl6-143" value="Aufgabe ist abgeschlossen" style="points=[[0.25,0,0],[0.5,0,0],[0.75,0,0],[1,0.25,0],[1,0.5,0],[1,0.75,0],[0.75,1,0],[0.5,1,0],[0.25,1,0],[0,0.75,0],[0,0.5,0],[0,0.25,0]];shape=mxgraph.bpmn.task;whiteSpace=wrap;rectStyle=rounded;size=10;html=1;container=1;expand=0;collapsible=0;taskMarker=abstract;" parent="At_IgEc15yCGYcTw2sl6-48" vertex="1">
          <mxGeometry x="1560" y="220" width="120" height="80" as="geometry" />
        </mxCell>
        <mxCell id="At_IgEc15yCGYcTw2sl6-148" style="edgeStyle=orthogonalEdgeStyle;rounded=0;orthogonalLoop=1;jettySize=auto;html=1;exitX=0.5;exitY=1;exitDx=0;exitDy=0;exitPerimeter=0;entryX=0;entryY=0.5;entryDx=0;entryDy=0;entryPerimeter=0;" parent="At_IgEc15yCGYcTw2sl6-48" source="At_IgEc15yCGYcTw2sl6-113" target="At_IgEc15yCGYcTw2sl6-177" edge="1">
          <mxGeometry relative="1" as="geometry">
            <mxPoint x="305" y="765" as="targetPoint" />
          </mxGeometry>
        </mxCell>
        <mxCell id="At_IgEc15yCGYcTw2sl6-150" style="edgeStyle=orthogonalEdgeStyle;rounded=0;orthogonalLoop=1;jettySize=auto;html=1;exitX=1;exitY=0.5;exitDx=0;exitDy=0;exitPerimeter=0;entryX=0;entryY=0.5;entryDx=0;entryDy=0;entryPerimeter=0;" parent="At_IgEc15yCGYcTw2sl6-48" source="At_IgEc15yCGYcTw2sl6-111" target="At_IgEc15yCGYcTw2sl6-113" edge="1">
          <mxGeometry relative="1" as="geometry" />
        </mxCell>
        <mxCell id="At_IgEc15yCGYcTw2sl6-156" value="" style="points=[[0.25,0,0],[0.5,0,0],[0.75,0,0],[1,0.25,0],[1,0.5,0],[1,0.75,0],[0.75,1,0],[0.5,1,0],[0.25,1,0],[0,0.75,0],[0,0.5,0],[0,0.25,0]];shape=mxgraph.bpmn.task;whiteSpace=wrap;rectStyle=rounded;size=10;html=1;container=1;expand=0;collapsible=0;bpmnShapeType=call;" parent="At_IgEc15yCGYcTw2sl6-48" vertex="1">
          <mxGeometry x="360" y="550" width="980" height="146" as="geometry" />
        </mxCell>
        <mxCell id="At_IgEc15yCGYcTw2sl6-157" value="Prüfung planen" style="points=[[0.25,0,0],[0.5,0,0],[0.75,0,0],[1,0.25,0],[1,0.5,0],[1,0.75,0],[0.75,1,0],[0.5,1,0],[0.25,1,0],[0,0.75,0],[0,0.5,0],[0,0.25,0]];shape=mxgraph.bpmn.task;whiteSpace=wrap;rectStyle=rounded;size=10;html=1;container=1;expand=0;collapsible=0;taskMarker=abstract;" parent="At_IgEc15yCGYcTw2sl6-156" vertex="1">
          <mxGeometry x="11.52" y="44.92307692307692" width="103.16" height="80.69307692307692" as="geometry" />
        </mxCell>
        <mxCell id="At_IgEc15yCGYcTw2sl6-160" value="Schüler melden&lt;br&gt;&amp;nbsp;sich an" style="points=[[0.145,0.145,0],[0.5,0,0],[0.855,0.145,0],[1,0.5,0],[0.855,0.855,0],[0.5,1,0],[0.145,0.855,0],[0,0.5,0]];shape=mxgraph.bpmn.event;html=1;verticalLabelPosition=bottom;labelBackgroundColor=#ffffff;verticalAlign=top;align=center;perimeter=ellipsePerimeter;outlineConnect=0;aspect=fixed;outline=catching;symbol=message;" parent="At_IgEc15yCGYcTw2sl6-156" vertex="1">
          <mxGeometry x="490.00243317660596" y="40.11711711711712" width="50" height="50" as="geometry" />
        </mxCell>
        <mxCell id="At_IgEc15yCGYcTw2sl6-161" value="Anmeldeinformationen an Schüler senden" style="points=[[0.25,0,0],[0.5,0,0],[0.75,0,0],[1,0.25,0],[1,0.5,0],[1,0.75,0],[0.75,1,0],[0.5,1,0],[0.25,1,0],[0,0.75,0],[0,0.5,0],[0,0.25,0]];shape=mxgraph.bpmn.task;whiteSpace=wrap;rectStyle=rounded;size=10;html=1;container=1;expand=0;collapsible=0;taskMarker=send;" parent="At_IgEc15yCGYcTw2sl6-156" vertex="1">
          <mxGeometry x="302.34" y="44.92307692307692" width="158.92" height="80.69307692307692" as="geometry" />
        </mxCell>
        <mxCell id="At_IgEc15yCGYcTw2sl6-158" value="Prüfungstermine und mögliche Teilnehmer eingeben" style="points=[[0.25,0,0],[0.5,0,0],[0.75,0,0],[1,0.25,0],[1,0.5,0],[1,0.75,0],[0.75,1,0],[0.5,1,0],[0.25,1,0],[0,0.75,0],[0,0.5,0],[0,0.25,0]];shape=mxgraph.bpmn.task;whiteSpace=wrap;rectStyle=rounded;size=10;html=1;container=1;expand=0;collapsible=0;taskMarker=abstract;" parent="At_IgEc15yCGYcTw2sl6-156" vertex="1">
          <mxGeometry x="145.96" y="44.92307692307692" width="129.39" height="80.69307692307692" as="geometry" />
        </mxCell>
        <mxCell id="At_IgEc15yCGYcTw2sl6-164" style="edgeStyle=orthogonalEdgeStyle;rounded=0;orthogonalLoop=1;jettySize=auto;html=1;exitX=1;exitY=0.5;exitDx=0;exitDy=0;exitPerimeter=0;entryX=0;entryY=0.5;entryDx=0;entryDy=0;entryPerimeter=0;" parent="At_IgEc15yCGYcTw2sl6-156" source="At_IgEc15yCGYcTw2sl6-157" target="At_IgEc15yCGYcTw2sl6-158" edge="1">
          <mxGeometry relative="1" as="geometry" />
        </mxCell>
        <mxCell id="At_IgEc15yCGYcTw2sl6-165" style="edgeStyle=orthogonalEdgeStyle;rounded=0;orthogonalLoop=1;jettySize=auto;html=1;exitX=1;exitY=0.5;exitDx=0;exitDy=0;exitPerimeter=0;entryX=0;entryY=0.5;entryDx=0;entryDy=0;entryPerimeter=0;" parent="At_IgEc15yCGYcTw2sl6-156" source="At_IgEc15yCGYcTw2sl6-158" target="At_IgEc15yCGYcTw2sl6-161" edge="1">
          <mxGeometry relative="1" as="geometry" />
        </mxCell>
        <mxCell id="At_IgEc15yCGYcTw2sl6-166" style="edgeStyle=orthogonalEdgeStyle;rounded=0;orthogonalLoop=1;jettySize=auto;html=1;exitX=1;exitY=0.5;exitDx=0;exitDy=0;exitPerimeter=0;entryX=0;entryY=0.5;entryDx=0;entryDy=0;entryPerimeter=0;" parent="At_IgEc15yCGYcTw2sl6-156" source="At_IgEc15yCGYcTw2sl6-161" target="At_IgEc15yCGYcTw2sl6-160" edge="1">
          <mxGeometry relative="1" as="geometry" />
        </mxCell>
        <mxCell id="At_IgEc15yCGYcTw2sl6-167" value="Prüfung bewerten" style="points=[[0.25,0,0],[0.5,0,0],[0.75,0,0],[1,0.25,0],[1,0.5,0],[1,0.75,0],[0.75,1,0],[0.5,1,0],[0.25,1,0],[0,0.75,0],[0,0.5,0],[0,0.25,0]];shape=mxgraph.bpmn.task;whiteSpace=wrap;rectStyle=rounded;size=10;html=1;container=1;expand=0;collapsible=0;taskMarker=abstract;" parent="At_IgEc15yCGYcTw2sl6-156" vertex="1">
          <mxGeometry x="562.98" y="44.92307692307692" width="114.68" height="80.69307692307692" as="geometry" />
        </mxCell>
        <mxCell id="At_IgEc15yCGYcTw2sl6-168" value="Punkte überprüfen und Gürtelfarbe anpassen" style="points=[[0.25,0,0],[0.5,0,0],[0.75,0,0],[1,0.25,0],[1,0.5,0],[1,0.75,0],[0.75,1,0],[0.5,1,0],[0.25,1,0],[0,0.75,0],[0,0.5,0],[0,0.25,0]];shape=mxgraph.bpmn.task;whiteSpace=wrap;rectStyle=rounded;size=10;html=1;container=1;expand=0;collapsible=0;taskMarker=abstract;" parent="At_IgEc15yCGYcTw2sl6-156" vertex="1">
          <mxGeometry x="713.11" y="44.92307692307692" width="106.89" height="80.69307692307692" as="geometry" />
        </mxCell>
        <mxCell id="At_IgEc15yCGYcTw2sl6-169" style="edgeStyle=orthogonalEdgeStyle;rounded=0;orthogonalLoop=1;jettySize=auto;html=1;exitX=1;exitY=0.5;exitDx=0;exitDy=0;exitPerimeter=0;entryX=0;entryY=0.5;entryDx=0;entryDy=0;entryPerimeter=0;" parent="At_IgEc15yCGYcTw2sl6-156" source="At_IgEc15yCGYcTw2sl6-167" target="At_IgEc15yCGYcTw2sl6-168" edge="1">
          <mxGeometry relative="1" as="geometry" />
        </mxCell>
        <mxCell id="At_IgEc15yCGYcTw2sl6-170" value="Prüfung abgeschlossen" style="points=[[0.25,0,0],[0.5,0,0],[0.75,0,0],[1,0.25,0],[1,0.5,0],[1,0.75,0],[0.75,1,0],[0.5,1,0],[0.25,1,0],[0,0.75,0],[0,0.5,0],[0,0.25,0]];shape=mxgraph.bpmn.task;whiteSpace=wrap;rectStyle=rounded;size=10;html=1;container=1;expand=0;collapsible=0;taskMarker=abstract;" parent="At_IgEc15yCGYcTw2sl6-156" vertex="1">
          <mxGeometry x="850" y="50" width="120" height="75.61" as="geometry" />
        </mxCell>
        <mxCell id="At_IgEc15yCGYcTw2sl6-171" style="edgeStyle=orthogonalEdgeStyle;rounded=0;orthogonalLoop=1;jettySize=auto;html=1;exitX=1;exitY=0.5;exitDx=0;exitDy=0;exitPerimeter=0;entryX=0;entryY=0.5;entryDx=0;entryDy=0;entryPerimeter=0;" parent="At_IgEc15yCGYcTw2sl6-156" source="At_IgEc15yCGYcTw2sl6-168" target="At_IgEc15yCGYcTw2sl6-170" edge="1">
          <mxGeometry relative="1" as="geometry" />
        </mxCell>
        <mxCell id="At_IgEc15yCGYcTw2sl6-132" value="Organisierte Prüfung" style="points=[[0.25,0,0],[0.5,0,0],[0.75,0,0],[1,0.25,0],[1,0.5,0],[1,0.75,0],[0.75,1,0],[0.5,1,0],[0.25,1,0],[0,0.75,0],[0,0.5,0],[0,0.25,0]];shape=mxgraph.bpmn.task;whiteSpace=wrap;rectStyle=rounded;size=10;html=1;container=1;expand=0;collapsible=0;taskMarker=abstract;strokeColor=#FFFFFF;" parent="At_IgEc15yCGYcTw2sl6-156" vertex="1">
          <mxGeometry x="20" y="11.23076923076923" width="150" height="22.46153846153846" as="geometry" />
        </mxCell>
        <mxCell id="At_IgEc15yCGYcTw2sl6-172" style="edgeStyle=orthogonalEdgeStyle;rounded=0;orthogonalLoop=1;jettySize=auto;html=1;exitX=0.5;exitY=1;exitDx=0;exitDy=0;exitPerimeter=0;" parent="At_IgEc15yCGYcTw2sl6-156" source="At_IgEc15yCGYcTw2sl6-132" target="At_IgEc15yCGYcTw2sl6-132" edge="1">
          <mxGeometry relative="1" as="geometry" />
        </mxCell>
        <mxCell id="At_IgEc15yCGYcTw2sl6-174" style="edgeStyle=orthogonalEdgeStyle;rounded=0;orthogonalLoop=1;jettySize=auto;html=1;exitX=1;exitY=0.5;exitDx=0;exitDy=0;exitPerimeter=0;" parent="At_IgEc15yCGYcTw2sl6-48" source="At_IgEc15yCGYcTw2sl6-173" target="At_IgEc15yCGYcTw2sl6-143" edge="1">
          <mxGeometry relative="1" as="geometry" />
        </mxCell>
        <mxCell id="At_IgEc15yCGYcTw2sl6-173" value="" style="points=[[0.25,0.25,0],[0.5,0,0],[0.75,0.25,0],[1,0.5,0],[0.75,0.75,0],[0.5,1,0],[0.25,0.75,0],[0,0.5,0]];shape=mxgraph.bpmn.gateway2;html=1;verticalLabelPosition=bottom;labelBackgroundColor=#ffffff;verticalAlign=top;align=center;perimeter=rhombusPerimeter;outlineConnect=0;outline=none;symbol=none;gwType=exclusive;" parent="At_IgEc15yCGYcTw2sl6-48" vertex="1">
          <mxGeometry x="1470" y="410" width="50" height="50" as="geometry" />
        </mxCell>
        <mxCell id="At_IgEc15yCGYcTw2sl6-175" style="edgeStyle=orthogonalEdgeStyle;rounded=0;orthogonalLoop=1;jettySize=auto;html=1;exitX=1;exitY=0.5;exitDx=0;exitDy=0;exitPerimeter=0;entryX=0.5;entryY=1;entryDx=0;entryDy=0;entryPerimeter=0;" parent="At_IgEc15yCGYcTw2sl6-48" source="At_IgEc15yCGYcTw2sl6-156" target="At_IgEc15yCGYcTw2sl6-173" edge="1">
          <mxGeometry relative="1" as="geometry" />
        </mxCell>
        <mxCell id="At_IgEc15yCGYcTw2sl6-177" value="" style="points=[[0.25,0,0],[0.5,0,0],[0.75,0,0],[1,0.25,0],[1,0.5,0],[1,0.75,0],[0.75,1,0],[0.5,1,0],[0.25,1,0],[0,0.75,0],[0,0.5,0],[0,0.25,0]];shape=mxgraph.bpmn.task;whiteSpace=wrap;rectStyle=rounded;size=10;html=1;container=1;expand=0;collapsible=0;bpmnShapeType=call;" parent="At_IgEc15yCGYcTw2sl6-48" vertex="1">
          <mxGeometry x="360" y="760" width="980" height="130" as="geometry" />
        </mxCell>
        <mxCell id="At_IgEc15yCGYcTw2sl6-178" value="Wettkampf planen" style="points=[[0.25,0,0],[0.5,0,0],[0.75,0,0],[1,0.25,0],[1,0.5,0],[1,0.75,0],[0.75,1,0],[0.5,1,0],[0.25,1,0],[0,0.75,0],[0,0.5,0],[0,0.25,0]];shape=mxgraph.bpmn.task;whiteSpace=wrap;rectStyle=rounded;size=10;html=1;container=1;expand=0;collapsible=0;taskMarker=abstract;" parent="At_IgEc15yCGYcTw2sl6-177" vertex="1">
          <mxGeometry x="11.52" y="40" width="103.16" height="71.85" as="geometry" />
        </mxCell>
        <mxCell id="At_IgEc15yCGYcTw2sl6-179" value="Schüler melden &lt;br&gt;sich an" style="points=[[0.145,0.145,0],[0.5,0,0],[0.855,0.145,0],[1,0.5,0],[0.855,0.855,0],[0.5,1,0],[0.145,0.855,0],[0,0.5,0]];shape=mxgraph.bpmn.event;html=1;verticalLabelPosition=bottom;labelBackgroundColor=#ffffff;verticalAlign=top;align=center;perimeter=ellipsePerimeter;outlineConnect=0;aspect=fixed;outline=catching;symbol=message;" parent="At_IgEc15yCGYcTw2sl6-177" vertex="1">
          <mxGeometry x="490.00243317660596" y="35.72072072072072" width="50" height="50" as="geometry" />
        </mxCell>
        <mxCell id="At_IgEc15yCGYcTw2sl6-180" value="Anmeldeinformationen an Schüler und&amp;nbsp;&lt;font style=&quot;font-size: 12px;&quot;&gt;&lt;span style=&quot;line-height: 107%; font-family: Aptos, sans-serif;&quot;&gt;Schiedsrichter&lt;/span&gt;&lt;span style=&quot;line-height: 107%; font-family: Aptos, sans-serif;&quot;&gt;&amp;nbsp;&lt;/span&gt;&amp;nbsp;&lt;/font&gt;senden" style="points=[[0.25,0,0],[0.5,0,0],[0.75,0,0],[1,0.25,0],[1,0.5,0],[1,0.75,0],[0.75,1,0],[0.5,1,0],[0.25,1,0],[0,0.75,0],[0,0.5,0],[0,0.25,0]];shape=mxgraph.bpmn.task;whiteSpace=wrap;rectStyle=rounded;size=10;html=1;container=1;expand=0;collapsible=0;taskMarker=send;" parent="At_IgEc15yCGYcTw2sl6-177" vertex="1">
          <mxGeometry x="302.34" y="40" width="158.92" height="71.85" as="geometry" />
        </mxCell>
        <mxCell id="At_IgEc15yCGYcTw2sl6-181" value="Wettkampfort,&amp;nbsp;&lt;br&gt;Voraussetzungen&lt;br&gt;&amp;nbsp;und -datum eingeben" style="points=[[0.25,0,0],[0.5,0,0],[0.75,0,0],[1,0.25,0],[1,0.5,0],[1,0.75,0],[0.75,1,0],[0.5,1,0],[0.25,1,0],[0,0.75,0],[0,0.5,0],[0,0.25,0]];shape=mxgraph.bpmn.task;whiteSpace=wrap;rectStyle=rounded;size=10;html=1;container=1;expand=0;collapsible=0;taskMarker=abstract;" parent="At_IgEc15yCGYcTw2sl6-177" vertex="1">
          <mxGeometry x="145.96" y="30" width="129.39" height="90" as="geometry" />
        </mxCell>
        <mxCell id="At_IgEc15yCGYcTw2sl6-182" style="edgeStyle=orthogonalEdgeStyle;rounded=0;orthogonalLoop=1;jettySize=auto;html=1;exitX=1;exitY=0.5;exitDx=0;exitDy=0;exitPerimeter=0;entryX=0;entryY=0.5;entryDx=0;entryDy=0;entryPerimeter=0;" parent="At_IgEc15yCGYcTw2sl6-177" source="At_IgEc15yCGYcTw2sl6-178" target="At_IgEc15yCGYcTw2sl6-181" edge="1">
          <mxGeometry relative="1" as="geometry" />
        </mxCell>
        <mxCell id="At_IgEc15yCGYcTw2sl6-183" style="edgeStyle=orthogonalEdgeStyle;rounded=0;orthogonalLoop=1;jettySize=auto;html=1;exitX=1;exitY=0.5;exitDx=0;exitDy=0;exitPerimeter=0;entryX=0;entryY=0.5;entryDx=0;entryDy=0;entryPerimeter=0;" parent="At_IgEc15yCGYcTw2sl6-177" source="At_IgEc15yCGYcTw2sl6-181" target="At_IgEc15yCGYcTw2sl6-180" edge="1">
          <mxGeometry relative="1" as="geometry" />
        </mxCell>
        <mxCell id="At_IgEc15yCGYcTw2sl6-184" style="edgeStyle=orthogonalEdgeStyle;rounded=0;orthogonalLoop=1;jettySize=auto;html=1;exitX=1;exitY=0.5;exitDx=0;exitDy=0;exitPerimeter=0;entryX=0;entryY=0.5;entryDx=0;entryDy=0;entryPerimeter=0;" parent="At_IgEc15yCGYcTw2sl6-177" source="At_IgEc15yCGYcTw2sl6-180" target="At_IgEc15yCGYcTw2sl6-179" edge="1">
          <mxGeometry relative="1" as="geometry" />
        </mxCell>
        <mxCell id="At_IgEc15yCGYcTw2sl6-185" value="Bestätigt die Zuordnung von Software-Studenten zu Kämpfen&amp;nbsp;" style="points=[[0.25,0,0],[0.5,0,0],[0.75,0,0],[1,0.25,0],[1,0.5,0],[1,0.75,0],[0.75,1,0],[0.5,1,0],[0.25,1,0],[0,0.75,0],[0,0.5,0],[0,0.25,0]];shape=mxgraph.bpmn.task;whiteSpace=wrap;rectStyle=rounded;size=10;html=1;container=1;expand=0;collapsible=0;taskMarker=abstract;" parent="At_IgEc15yCGYcTw2sl6-177" vertex="1">
          <mxGeometry x="562.98" y="40" width="114.68" height="71.85" as="geometry" />
        </mxCell>
        <mxCell id="At_IgEc15yCGYcTw2sl6-186" value="Punkte in Echtzeit eingebenund Gürtelfarbe anpassen" style="points=[[0.25,0,0],[0.5,0,0],[0.75,0,0],[1,0.25,0],[1,0.5,0],[1,0.75,0],[0.75,1,0],[0.5,1,0],[0.25,1,0],[0,0.75,0],[0,0.5,0],[0,0.25,0]];shape=mxgraph.bpmn.task;whiteSpace=wrap;rectStyle=rounded;size=10;html=1;container=1;expand=0;collapsible=0;taskMarker=abstract;" parent="At_IgEc15yCGYcTw2sl6-177" vertex="1">
          <mxGeometry x="713.11" y="40" width="106.89" height="71.85" as="geometry" />
        </mxCell>
        <mxCell id="At_IgEc15yCGYcTw2sl6-187" style="edgeStyle=orthogonalEdgeStyle;rounded=0;orthogonalLoop=1;jettySize=auto;html=1;exitX=1;exitY=0.5;exitDx=0;exitDy=0;exitPerimeter=0;entryX=0;entryY=0.5;entryDx=0;entryDy=0;entryPerimeter=0;" parent="At_IgEc15yCGYcTw2sl6-177" source="At_IgEc15yCGYcTw2sl6-185" target="At_IgEc15yCGYcTw2sl6-186" edge="1">
          <mxGeometry relative="1" as="geometry" />
        </mxCell>
        <mxCell id="At_IgEc15yCGYcTw2sl6-188" value="Wettkampf abgeschlossen" style="points=[[0.25,0,0],[0.5,0,0],[0.75,0,0],[1,0.25,0],[1,0.5,0],[1,0.75,0],[0.75,1,0],[0.5,1,0],[0.25,1,0],[0,0.75,0],[0,0.5,0],[0,0.25,0]];shape=mxgraph.bpmn.task;whiteSpace=wrap;rectStyle=rounded;size=10;html=1;container=1;expand=0;collapsible=0;taskMarker=abstract;" parent="At_IgEc15yCGYcTw2sl6-177" vertex="1">
          <mxGeometry x="850" y="18.153153153153152" width="120" height="93.69369369369369" as="geometry" />
        </mxCell>
        <mxCell id="At_IgEc15yCGYcTw2sl6-189" style="edgeStyle=orthogonalEdgeStyle;rounded=0;orthogonalLoop=1;jettySize=auto;html=1;exitX=1;exitY=0.5;exitDx=0;exitDy=0;exitPerimeter=0;entryX=0;entryY=0.5;entryDx=0;entryDy=0;entryPerimeter=0;" parent="At_IgEc15yCGYcTw2sl6-177" source="At_IgEc15yCGYcTw2sl6-186" target="At_IgEc15yCGYcTw2sl6-188" edge="1">
          <mxGeometry relative="1" as="geometry" />
        </mxCell>
        <mxCell id="At_IgEc15yCGYcTw2sl6-190" value="Organisierter Wettkampf" style="points=[[0.25,0,0],[0.5,0,0],[0.75,0,0],[1,0.25,0],[1,0.5,0],[1,0.75,0],[0.75,1,0],[0.5,1,0],[0.25,1,0],[0,0.75,0],[0,0.5,0],[0,0.25,0]];shape=mxgraph.bpmn.task;whiteSpace=wrap;rectStyle=rounded;size=10;html=1;container=1;expand=0;collapsible=0;taskMarker=abstract;strokeColor=#FFFFFF;" parent="At_IgEc15yCGYcTw2sl6-177" vertex="1">
          <mxGeometry x="20" y="10" width="150" height="20" as="geometry" />
        </mxCell>
        <mxCell id="At_IgEc15yCGYcTw2sl6-191" style="edgeStyle=orthogonalEdgeStyle;rounded=0;orthogonalLoop=1;jettySize=auto;html=1;exitX=0.5;exitY=1;exitDx=0;exitDy=0;exitPerimeter=0;" parent="At_IgEc15yCGYcTw2sl6-177" source="At_IgEc15yCGYcTw2sl6-190" target="At_IgEc15yCGYcTw2sl6-190" edge="1">
          <mxGeometry relative="1" as="geometry" />
        </mxCell>
        <mxCell id="At_IgEc15yCGYcTw2sl6-216" style="edgeStyle=orthogonalEdgeStyle;rounded=0;orthogonalLoop=1;jettySize=auto;html=1;exitX=1;exitY=0.5;exitDx=0;exitDy=0;exitPerimeter=0;entryX=0.5;entryY=1;entryDx=0;entryDy=0;entryPerimeter=0;" parent="At_IgEc15yCGYcTw2sl6-48" source="At_IgEc15yCGYcTw2sl6-177" target="At_IgEc15yCGYcTw2sl6-173" edge="1">
          <mxGeometry relative="1" as="geometry" />
        </mxCell>
        <mxCell id="At_IgEc15yCGYcTw2sl6-305" style="edgeStyle=orthogonalEdgeStyle;rounded=0;orthogonalLoop=1;jettySize=auto;html=1;exitX=1;exitY=0.5;exitDx=0;exitDy=0;exitPerimeter=0;entryX=0.5;entryY=0;entryDx=0;entryDy=0;entryPerimeter=0;" parent="At_IgEc15yCGYcTw2sl6-48" source="At_IgEc15yCGYcTw2sl6-117" target="At_IgEc15yCGYcTw2sl6-173" edge="1">
          <mxGeometry relative="1" as="geometry" />
        </mxCell>
        <mxCell id="XgZ7OTvYV7EqM5-O8hql-1" style="edgeStyle=orthogonalEdgeStyle;rounded=0;orthogonalLoop=1;jettySize=auto;html=1;exitX=0.5;exitY=1;exitDx=0;exitDy=0;exitPerimeter=0;entryX=0.5;entryY=0;entryDx=0;entryDy=0;entryPerimeter=0;" parent="At_IgEc15yCGYcTw2sl6-48" source="XgZ7OTvYV7EqM5-O8hql-12" target="At_IgEc15yCGYcTw2sl6-111" edge="1">
          <mxGeometry relative="1" as="geometry">
            <mxPoint x="150" y="445" as="sourcePoint" />
            <mxPoint x="290" y="445" as="targetPoint" />
          </mxGeometry>
        </mxCell>
        <mxCell id="XgZ7OTvYV7EqM5-O8hql-12" value="" style="points=[[0.145,0.145,0],[0.5,0,0],[0.855,0.145,0],[1,0.5,0],[0.855,0.855,0],[0.5,1,0],[0.145,0.855,0],[0,0.5,0]];shape=mxgraph.bpmn.event;html=1;verticalLabelPosition=bottom;labelBackgroundColor=#ffffff;verticalAlign=top;align=center;perimeter=ellipsePerimeter;outlineConnect=0;aspect=fixed;outline=boundInt;symbol=message;" parent="At_IgEc15yCGYcTw2sl6-48" vertex="1">
          <mxGeometry x="75" y="200" width="50" height="50" as="geometry" />
        </mxCell>
        <mxCell id="At_IgEc15yCGYcTw2sl6-141" value="" style="dashed=1;dashPattern=8 4;endArrow=blockThin;endFill=1;startArrow=oval;startFill=0;endSize=6;startSize=4;html=1;rounded=0;exitX=0.5;exitY=0;exitDx=0;exitDy=0;exitPerimeter=0;entryX=0.5;entryY=1;entryDx=0;entryDy=0;entryPerimeter=0;" parent="At_IgEc15yCGYcTw2sl6-48" target="At_IgEc15yCGYcTw2sl6-194" edge="1">
          <mxGeometry width="160" relative="1" as="geometry">
            <mxPoint x="720.0000000000002" y="599.9230769230771" as="sourcePoint" />
            <mxPoint x="1070.2000000000005" y="-230" as="targetPoint" />
            <Array as="points">
              <mxPoint x="720.2" y="515" />
              <mxPoint x="1210" y="515" />
              <mxPoint x="1210" y="226" />
              <mxPoint x="1210" y="-55" />
              <mxPoint x="1090" y="-54" />
            </Array>
          </mxGeometry>
        </mxCell>
        <mxCell id="fI3-ozC-W1uijajEzl0u-5" value="Kurs abhalten" style="text;html=1;align=center;verticalAlign=middle;whiteSpace=wrap;rounded=0;" vertex="1" parent="At_IgEc15yCGYcTw2sl6-48">
          <mxGeometry x="271" y="403" width="60" height="30" as="geometry" />
        </mxCell>
        <mxCell id="fI3-ozC-W1uijajEzl0u-6" value="Auftrag abarbeiten" style="text;html=1;align=center;verticalAlign=middle;whiteSpace=wrap;rounded=0;" vertex="1" parent="At_IgEc15yCGYcTw2sl6-48">
          <mxGeometry x="270" y="120" width="60" height="30" as="geometry" />
        </mxCell>
        <mxCell id="fI3-ozC-W1uijajEzl0u-7" value="Pürfung organisieren" style="text;html=1;align=center;verticalAlign=middle;whiteSpace=wrap;rounded=0;" vertex="1" parent="At_IgEc15yCGYcTw2sl6-48">
          <mxGeometry x="270" y="590" width="60" height="30" as="geometry" />
        </mxCell>
        <mxCell id="fI3-ozC-W1uijajEzl0u-8" value="Wettkampf organisieren" style="text;html=1;align=center;verticalAlign=middle;whiteSpace=wrap;rounded=0;" vertex="1" parent="At_IgEc15yCGYcTw2sl6-48">
          <mxGeometry x="271" y="790" width="60" height="30" as="geometry" />
        </mxCell>
        <mxCell id="fI3-ozC-W1uijajEzl0u-9" value="Ende Aufgabe" style="points=[[0.145,0.145,0],[0.5,0,0],[0.855,0.145,0],[1,0.5,0],[0.855,0.855,0],[0.5,1,0],[0.145,0.855,0],[0,0.5,0]];shape=mxgraph.bpmn.event;html=1;verticalLabelPosition=bottom;labelBackgroundColor=#ffffff;verticalAlign=top;align=center;perimeter=ellipsePerimeter;outlineConnect=0;aspect=fixed;outline=end;symbol=terminate2;" vertex="1" parent="At_IgEc15yCGYcTw2sl6-48">
          <mxGeometry x="1595" y="80" width="50" height="50" as="geometry" />
        </mxCell>
        <mxCell id="At_IgEc15yCGYcTw2sl6-207" value="&lt;b&gt;&lt;span style=&quot;font-size:11.0pt;line-height:107%;&lt;br/&gt;font-family:&amp;quot;Aptos&amp;quot;,sans-serif;mso-ascii-theme-font:minor-latin;mso-fareast-font-family:&lt;br/&gt;Aptos;mso-fareast-theme-font:minor-latin;mso-hansi-theme-font:minor-latin;&lt;br/&gt;mso-bidi-font-family:Arial;mso-bidi-theme-font:minor-bidi;mso-ansi-language:&lt;br/&gt;DE;mso-fareast-language:EN-US;mso-bidi-language:AR-SA&quot;&gt;Schiedsrichter&lt;/span&gt;&lt;/b&gt;&lt;span style=&quot;font-size:11.0pt;line-height:107%;font-family:&amp;quot;Aptos&amp;quot;,sans-serif;&lt;br/&gt;mso-ascii-theme-font:minor-latin;mso-fareast-font-family:Aptos;mso-fareast-theme-font:&lt;br/&gt;minor-latin;mso-hansi-theme-font:minor-latin;mso-bidi-font-family:Arial;&lt;br/&gt;mso-bidi-theme-font:minor-bidi;mso-ansi-language:DE;mso-fareast-language:EN-US;&lt;br/&gt;mso-bidi-language:AR-SA&quot;&gt;&lt;/span&gt;" style="swimlane;html=1;startSize=20;fontStyle=0;collapsible=0;horizontal=0;swimlaneLine=1;swimlaneFillColor=#ffffff;strokeWidth=2;whiteSpace=wrap;" parent="qcsIHLgInA1QgSfUokJL-2" vertex="1">
          <mxGeometry x="20" y="1010" width="1740" height="260" as="geometry" />
        </mxCell>
        <mxCell id="At_IgEc15yCGYcTw2sl6-209" value="" style="points=[[0.145,0.145,0],[0.5,0,0],[0.855,0.145,0],[1,0.5,0],[0.855,0.855,0],[0.5,1,0],[0.145,0.855,0],[0,0.5,0]];shape=mxgraph.bpmn.event;html=1;verticalLabelPosition=bottom;labelBackgroundColor=#ffffff;verticalAlign=top;align=center;perimeter=ellipsePerimeter;outlineConnect=0;aspect=fixed;outline=catching;symbol=message;" parent="At_IgEc15yCGYcTw2sl6-207" vertex="1">
          <mxGeometry x="693.9999999999999" y="96" width="60" height="60" as="geometry" />
        </mxCell>
        <mxCell id="At_IgEc15yCGYcTw2sl6-213" style="edgeStyle=orthogonalEdgeStyle;rounded=0;orthogonalLoop=1;jettySize=auto;html=1;exitX=1;exitY=0.5;exitDx=0;exitDy=0;exitPerimeter=0;entryX=0;entryY=0.5;entryDx=0;entryDy=0;entryPerimeter=0;" parent="At_IgEc15yCGYcTw2sl6-207" source="At_IgEc15yCGYcTw2sl6-209" target="At_IgEc15yCGYcTw2sl6-301" edge="1">
          <mxGeometry relative="1" as="geometry">
            <mxPoint x="780" y="126" as="targetPoint" />
          </mxGeometry>
        </mxCell>
        <mxCell id="At_IgEc15yCGYcTw2sl6-214" style="edgeStyle=orthogonalEdgeStyle;rounded=0;orthogonalLoop=1;jettySize=auto;html=1;exitX=1;exitY=0.5;exitDx=0;exitDy=0;exitPerimeter=0;entryX=0;entryY=0.5;entryDx=0;entryDy=0;entryPerimeter=0;" parent="At_IgEc15yCGYcTw2sl6-207" source="At_IgEc15yCGYcTw2sl6-301" target="At_IgEc15yCGYcTw2sl6-220" edge="1">
          <mxGeometry relative="1" as="geometry">
            <mxPoint x="1030" y="126" as="targetPoint" />
            <mxPoint x="900" y="126" as="sourcePoint" />
          </mxGeometry>
        </mxCell>
        <mxCell id="At_IgEc15yCGYcTw2sl6-220" value="Bewertet" style="points=[[0.25,0,0],[0.5,0,0],[0.75,0,0],[1,0.25,0],[1,0.5,0],[1,0.75,0],[0.75,1,0],[0.5,1,0],[0.25,1,0],[0,0.75,0],[0,0.5,0],[0,0.25,0]];shape=mxgraph.bpmn.task;whiteSpace=wrap;rectStyle=rounded;size=10;html=1;container=1;expand=0;collapsible=0;taskMarker=send;" parent="At_IgEc15yCGYcTw2sl6-207" vertex="1">
          <mxGeometry x="1071" y="85.65307692307678" width="158.92" height="80.69307692307692" as="geometry" />
        </mxCell>
        <mxCell id="At_IgEc15yCGYcTw2sl6-301" value="&lt;span style=&quot;font-size: 11pt; line-height: 15.6933px; font-family: Aptos, sans-serif;&quot;&gt;Schiedsrichter&lt;/span&gt;&lt;span style=&quot;font-size: 11pt; line-height: 15.6933px; font-family: Aptos, sans-serif;&quot;&gt;&amp;nbsp;&lt;/span&gt;&amp;nbsp;&lt;br&gt;&lt;span style=&quot;text-wrap: nowrap; background-color: rgb(255, 255, 255);&quot;&gt;teilnimmt&lt;/span&gt;" style="points=[[0.25,0,0],[0.5,0,0],[0.75,0,0],[1,0.25,0],[1,0.5,0],[1,0.75,0],[0.75,1,0],[0.5,1,0],[0.25,1,0],[0,0.75,0],[0,0.5,0],[0,0.25,0]];shape=mxgraph.bpmn.task;whiteSpace=wrap;rectStyle=rounded;size=10;html=1;container=1;expand=0;collapsible=0;taskMarker=send;" parent="At_IgEc15yCGYcTw2sl6-207" vertex="1">
          <mxGeometry x="818" y="85.65307692307688" width="158.92" height="80.69307692307692" as="geometry" />
        </mxCell>
        <mxCell id="At_IgEc15yCGYcTw2sl6-208" value="" style="dashed=1;dashPattern=8 4;endArrow=blockThin;endFill=1;startArrow=oval;startFill=0;endSize=6;startSize=4;html=1;rounded=0;exitX=0.25;exitY=1;exitDx=0;exitDy=0;exitPerimeter=0;entryX=0.5;entryY=0;entryDx=0;entryDy=0;entryPerimeter=0;" parent="qcsIHLgInA1QgSfUokJL-2" source="At_IgEc15yCGYcTw2sl6-180" target="At_IgEc15yCGYcTw2sl6-209" edge="1">
          <mxGeometry width="160" relative="1" as="geometry">
            <mxPoint x="730" y="846" as="sourcePoint" />
            <mxPoint x="290" y="1166" as="targetPoint" />
          </mxGeometry>
        </mxCell>
        <mxCell id="At_IgEc15yCGYcTw2sl6-212" value="" style="dashed=1;dashPattern=8 4;endArrow=blockThin;endFill=1;startArrow=oval;startFill=0;endSize=6;startSize=4;html=1;rounded=0;exitX=0.5;exitY=0;exitDx=0;exitDy=0;exitPerimeter=0;entryX=0.5;entryY=1;entryDx=0;entryDy=0;entryPerimeter=0;" parent="qcsIHLgInA1QgSfUokJL-2" source="At_IgEc15yCGYcTw2sl6-301" target="At_IgEc15yCGYcTw2sl6-179" edge="1">
          <mxGeometry width="160" relative="1" as="geometry">
            <mxPoint x="890" y="1096" as="sourcePoint" />
            <mxPoint x="890" y="936" as="targetPoint" />
          </mxGeometry>
        </mxCell>
        <mxCell id="At_IgEc15yCGYcTw2sl6-219" value="" style="dashed=1;dashPattern=8 4;endArrow=blockThin;endFill=1;startArrow=oval;startFill=0;endSize=6;startSize=4;html=1;rounded=0;entryX=0.5;entryY=1;entryDx=0;entryDy=0;entryPerimeter=0;" parent="qcsIHLgInA1QgSfUokJL-2" source="At_IgEc15yCGYcTw2sl6-220" target="At_IgEc15yCGYcTw2sl6-186" edge="1">
          <mxGeometry width="160" relative="1" as="geometry">
            <mxPoint x="1140" y="1096" as="sourcePoint" />
            <mxPoint x="905" y="772" as="targetPoint" />
          </mxGeometry>
        </mxCell>
        <mxCell id="At_IgEc15yCGYcTw2sl6-5" value="&lt;div&gt;&lt;br style=&quot;text-align: center;&quot;&gt;&lt;/div&gt;" style="points=[[0.25,0,0],[0.5,0,0],[0.75,0,0],[1,0.25,0],[1,0.5,0],[1,0.75,0],[0.75,1,0],[0.5,1,0],[0.25,1,0],[0,0.75,0],[0,0.5,0],[0,0.25,0]];shape=mxgraph.bpmn.task;whiteSpace=wrap;rectStyle=rounded;size=10;html=1;container=0;expand=0;collapsible=0;bpmnShapeType=call;verticalAlign=top;align=left;spacingLeft=5;" parent="1" vertex="1">
          <mxGeometry x="70" y="1980" width="880" height="426" as="geometry" />
        </mxCell>
        <mxCell id="At_IgEc15yCGYcTw2sl6-42" value="" style="dashed=1;dashPattern=8 4;endArrow=blockThin;endFill=1;startArrow=oval;startFill=0;endSize=6;startSize=4;html=1;rounded=0;exitX=0.5;exitY=1;exitDx=0;exitDy=0;exitPerimeter=0;entryX=0.5;entryY=0;entryDx=0;entryDy=0;entryPerimeter=0;" parent="1" source="XgZ7OTvYV7EqM5-O8hql-2" target="XgZ7OTvYV7EqM5-O8hql-12" edge="1">
          <mxGeometry width="160" relative="1" as="geometry">
            <mxPoint x="-10" y="385" as="sourcePoint" />
            <mxPoint x="180" y="700" as="targetPoint" />
            <Array as="points" />
          </mxGeometry>
        </mxCell>
        <mxCell id="At_IgEc15yCGYcTw2sl6-217" value="" style="dashed=1;dashPattern=8 4;endArrow=blockThin;endFill=1;startArrow=oval;startFill=0;endSize=6;startSize=4;html=1;rounded=0;exitX=0.5;exitY=1;exitDx=0;exitDy=0;exitPerimeter=0;" parent="1" source="At_IgEc15yCGYcTw2sl6-197" target="At_IgEc15yCGYcTw2sl6-160" edge="1">
          <mxGeometry width="160" relative="1" as="geometry">
            <mxPoint x="350" y="620" as="sourcePoint" />
            <mxPoint x="510" y="620" as="targetPoint" />
            <Array as="points">
              <mxPoint x="993" y="610" />
              <mxPoint x="993" y="1230" />
              <mxPoint x="535" y="1230" />
            </Array>
          </mxGeometry>
        </mxCell>
        <mxCell id="At_IgEc15yCGYcTw2sl6-302" value="" style="dashed=1;dashPattern=8 4;endArrow=blockThin;endFill=1;startArrow=oval;startFill=0;endSize=6;startSize=4;html=1;rounded=0;exitX=0.75;exitY=1;exitDx=0;exitDy=0;exitPerimeter=0;" parent="1" source="At_IgEc15yCGYcTw2sl6-197" target="At_IgEc15yCGYcTw2sl6-179" edge="1">
          <mxGeometry width="160" relative="1" as="geometry">
            <mxPoint x="410" y="620" as="sourcePoint" />
            <mxPoint x="570" y="620" as="targetPoint" />
            <Array as="points">
              <mxPoint x="1023" y="600" />
              <mxPoint x="1030" y="1410" />
              <mxPoint x="820" y="1410" />
              <mxPoint x="535" y="1410" />
            </Array>
          </mxGeometry>
        </mxCell>
        <mxCell id="XgZ7OTvYV7EqM5-O8hql-11" value="" style="edgeStyle=elbowEdgeStyle;fontSize=12;html=1;endArrow=blockThin;endFill=1;rounded=0;exitX=1;exitY=0.5;exitDx=0;exitDy=0;exitPerimeter=0;" parent="1" source="f7bu9HOFhvf2K83We35n-1" edge="1">
          <mxGeometry width="160" relative="1" as="geometry">
            <mxPoint x="50" y="355" as="sourcePoint" />
            <mxPoint x="-80" y="345" as="targetPoint" />
          </mxGeometry>
        </mxCell>
        <mxCell id="XgZ7OTvYV7EqM5-O8hql-15" value="" style="dashed=1;dashPattern=8 4;endArrow=blockThin;endFill=1;startArrow=oval;startFill=0;endSize=6;startSize=4;html=1;rounded=0;" parent="1" source="XgZ7OTvYV7EqM5-O8hql-13" target="XgZ7OTvYV7EqM5-O8hql-16" edge="1">
          <mxGeometry width="160" relative="1" as="geometry">
            <mxPoint x="448" y="785" as="sourcePoint" />
            <mxPoint x="355.5" y="370" as="targetPoint" />
            <Array as="points" />
          </mxGeometry>
        </mxCell>
        <mxCell id="At_IgEc15yCGYcTw2sl6-6" value="" style="points=[[0.25,0.25,0],[0.5,0,0],[0.75,0.25,0],[1,0.5,0],[0.75,0.75,0],[0.5,1,0],[0.25,0.75,0],[0,0.5,0]];shape=mxgraph.bpmn.gateway2;html=1;verticalLabelPosition=bottom;labelBackgroundColor=#ffffff;verticalAlign=top;align=center;perimeter=rhombusPerimeter;outlineConnect=0;outline=none;symbol=none;gwType=parallel;" parent="1" vertex="1">
          <mxGeometry x="255.41071661928805" y="2144.0384615384614" width="68.9189189189189" height="81.92307692307695" as="geometry" />
        </mxCell>
        <mxCell id="fI3-ozC-W1uijajEzl0u-4" style="edgeStyle=orthogonalEdgeStyle;rounded=0;orthogonalLoop=1;jettySize=auto;html=1;" edge="1" parent="1" source="At_IgEc15yCGYcTw2sl6-7" target="fI3-ozC-W1uijajEzl0u-3">
          <mxGeometry relative="1" as="geometry" />
        </mxCell>
        <mxCell id="At_IgEc15yCGYcTw2sl6-7" value="" style="points=[[0.25,0.25,0],[0.5,0,0],[0.75,0.25,0],[1,0.5,0],[0.75,0.75,0],[0.5,1,0],[0.25,0.75,0],[0,0.5,0]];shape=mxgraph.bpmn.gateway2;html=1;verticalLabelPosition=bottom;labelBackgroundColor=#ffffff;verticalAlign=top;align=center;perimeter=rhombusPerimeter;outlineConnect=0;outline=none;symbol=none;gwType=parallel;" parent="1" vertex="1">
          <mxGeometry x="671.7310946582376" y="2144.0384615384614" width="68.9189189189189" height="81.92307692307695" as="geometry" />
        </mxCell>
        <mxCell id="At_IgEc15yCGYcTw2sl6-8" value="&lt;font style=&quot;font-size: 10px;&quot;&gt;Mindestalter prüfen&lt;/font&gt;" style="points=[[0.25,0,0],[0.5,0,0],[0.75,0,0],[1,0.25,0],[1,0.5,0],[1,0.75,0],[0.75,1,0],[0.5,1,0],[0.25,1,0],[0,0.75,0],[0,0.5,0],[0,0.25,0]];shape=mxgraph.bpmn.task;whiteSpace=wrap;rectStyle=rounded;size=10;html=1;container=1;expand=0;collapsible=0;taskMarker=abstract;" parent="1" vertex="1">
          <mxGeometry x="430.4526658476659" y="2023.6600323223493" width="115" height="80" as="geometry" />
        </mxCell>
        <mxCell id="At_IgEc15yCGYcTw2sl6-11" style="edgeStyle=orthogonalEdgeStyle;rounded=0;orthogonalLoop=1;jettySize=auto;html=1;exitX=0.5;exitY=0;exitDx=0;exitDy=0;exitPerimeter=0;entryX=0;entryY=0.5;entryDx=0;entryDy=0;entryPerimeter=0;" parent="1" source="At_IgEc15yCGYcTw2sl6-6" target="At_IgEc15yCGYcTw2sl6-8" edge="1">
          <mxGeometry relative="1" as="geometry" />
        </mxCell>
        <mxCell id="At_IgEc15yCGYcTw2sl6-12" style="edgeStyle=orthogonalEdgeStyle;rounded=0;orthogonalLoop=1;jettySize=auto;html=1;exitX=1;exitY=0.5;exitDx=0;exitDy=0;exitPerimeter=0;entryX=0.5;entryY=0;entryDx=0;entryDy=0;entryPerimeter=0;" parent="1" source="At_IgEc15yCGYcTw2sl6-8" target="At_IgEc15yCGYcTw2sl6-7" edge="1">
          <mxGeometry relative="1" as="geometry" />
        </mxCell>
        <mxCell id="At_IgEc15yCGYcTw2sl6-14" value="&lt;span style=&quot;color: rgb(13, 13, 13); font-family: Söhne, ui-sans-serif, system-ui, -apple-system, &amp;quot;Segoe UI&amp;quot;, Roboto, Ubuntu, Cantarell, &amp;quot;Noto Sans&amp;quot;, sans-serif, &amp;quot;Helvetica Neue&amp;quot;, Arial, &amp;quot;Apple Color Emoji&amp;quot;, &amp;quot;Segoe UI Emoji&amp;quot;, &amp;quot;Segoe UI Symbol&amp;quot;, &amp;quot;Noto Color Emoji&amp;quot;; text-align: left; white-space-collapse: preserve; background-color: rgb(255, 255, 255);&quot;&gt;&lt;font style=&quot;font-size: 10px;&quot;&gt;Gesundheitscheck &lt;/font&gt;&lt;/span&gt;" style="points=[[0.25,0,0],[0.5,0,0],[0.75,0,0],[1,0.25,0],[1,0.5,0],[1,0.75,0],[0.75,1,0],[0.5,1,0],[0.25,1,0],[0,0.75,0],[0,0.5,0],[0,0.25,0]];shape=mxgraph.bpmn.task;whiteSpace=wrap;rectStyle=rounded;size=10;html=1;container=1;expand=0;collapsible=0;taskMarker=abstract;" parent="1" vertex="1">
          <mxGeometry x="430.4526658476659" y="2117.6413330696923" width="115" height="80" as="geometry" />
        </mxCell>
        <mxCell id="At_IgEc15yCGYcTw2sl6-15" value="&lt;span style=&quot;border: 0px solid rgb(227, 227, 227); box-sizing: border-box; --tw-border-spacing-x: 0; --tw-border-spacing-y: 0; --tw-translate-x: 0; --tw-translate-y: 0; --tw-rotate: 0; --tw-skew-x: 0; --tw-skew-y: 0; --tw-scale-x: 1; --tw-scale-y: 1; --tw-pan-x: ; --tw-pan-y: ; --tw-pinch-zoom: ; --tw-scroll-snap-strictness: proximity; --tw-gradient-from-position: ; --tw-gradient-via-position: ; --tw-gradient-to-position: ; --tw-ordinal: ; --tw-slashed-zero: ; --tw-numeric-figure: ; --tw-numeric-spacing: ; --tw-numeric-fraction: ; --tw-ring-inset: ; --tw-ring-offset-width: 0px; --tw-ring-offset-color: #fff; --tw-ring-color: rgba(69,89,164,.5); --tw-ring-offset-shadow: 0 0 transparent; --tw-ring-shadow: 0 0 transparent; --tw-shadow: 0 0 transparent; --tw-shadow-colored: 0 0 transparent; --tw-blur: ; --tw-brightness: ; --tw-contrast: ; --tw-grayscale: ; --tw-hue-rotate: ; --tw-invert: ; --tw-saturate: ; --tw-sepia: ; --tw-drop-shadow: ; --tw-backdrop-blur: ; --tw-backdrop-brightness: ; --tw-backdrop-contrast: ; --tw-backdrop-grayscale: ; --tw-backdrop-hue-rotate: ; --tw-backdrop-invert: ; --tw-backdrop-opacity: ; --tw-backdrop-saturate: ; --tw-backdrop-sepia: ; --tw-contain-size: ; --tw-contain-layout: ; --tw-contain-paint: ; --tw-contain-style: ; color: rgb(13, 13, 13); font-family: Söhne, ui-sans-serif, system-ui, -apple-system, &amp;quot;Segoe UI&amp;quot;, Roboto, Ubuntu, Cantarell, &amp;quot;Noto Sans&amp;quot;, sans-serif, &amp;quot;Helvetica Neue&amp;quot;, Arial, &amp;quot;Apple Color Emoji&amp;quot;, &amp;quot;Segoe UI Emoji&amp;quot;, &amp;quot;Segoe UI Symbol&amp;quot;, &amp;quot;Noto Color Emoji&amp;quot;; text-align: left; white-space-collapse: preserve; background-color: rgb(255, 255, 255);&quot;&gt;&lt;font style=&quot;font-size: 10px;&quot;&gt;Erfahrungsstand und Vorkenntnisse&lt;/font&gt;&lt;/span&gt;" style="points=[[0.25,0,0],[0.5,0,0],[0.75,0,0],[1,0.25,0],[1,0.5,0],[1,0.75,0],[0.75,1,0],[0.5,1,0],[0.25,1,0],[0,0.75,0],[0,0.5,0],[0,0.25,0]];shape=mxgraph.bpmn.task;whiteSpace=wrap;rectStyle=rounded;size=10;html=1;container=1;expand=0;collapsible=0;taskMarker=abstract;" parent="1" vertex="1">
          <mxGeometry x="430.4526658476659" y="2210.511891232941" width="115" height="80" as="geometry" />
        </mxCell>
        <mxCell id="At_IgEc15yCGYcTw2sl6-16" value="&lt;span style=&quot;border: 0px solid rgb(227, 227, 227); box-sizing: border-box; --tw-border-spacing-x: 0; --tw-border-spacing-y: 0; --tw-translate-x: 0; --tw-translate-y: 0; --tw-rotate: 0; --tw-skew-x: 0; --tw-skew-y: 0; --tw-scale-x: 1; --tw-scale-y: 1; --tw-pan-x: ; --tw-pan-y: ; --tw-pinch-zoom: ; --tw-scroll-snap-strictness: proximity; --tw-gradient-from-position: ; --tw-gradient-via-position: ; --tw-gradient-to-position: ; --tw-ordinal: ; --tw-slashed-zero: ; --tw-numeric-figure: ; --tw-numeric-spacing: ; --tw-numeric-fraction: ; --tw-ring-inset: ; --tw-ring-offset-width: 0px; --tw-ring-offset-color: #fff; --tw-ring-color: rgba(69,89,164,.5); --tw-ring-offset-shadow: 0 0 transparent; --tw-ring-shadow: 0 0 transparent; --tw-shadow: 0 0 transparent; --tw-shadow-colored: 0 0 transparent; --tw-blur: ; --tw-brightness: ; --tw-contrast: ; --tw-grayscale: ; --tw-hue-rotate: ; --tw-invert: ; --tw-saturate: ; --tw-sepia: ; --tw-drop-shadow: ; --tw-backdrop-blur: ; --tw-backdrop-brightness: ; --tw-backdrop-contrast: ; --tw-backdrop-grayscale: ; --tw-backdrop-hue-rotate: ; --tw-backdrop-invert: ; --tw-backdrop-opacity: ; --tw-backdrop-saturate: ; --tw-backdrop-sepia: ; --tw-contain-size: ; --tw-contain-layout: ; --tw-contain-paint: ; --tw-contain-style: ; color: rgb(13, 13, 13); font-family: Söhne, ui-sans-serif, system-ui, -apple-system, &amp;quot;Segoe UI&amp;quot;, Roboto, Ubuntu, Cantarell, &amp;quot;Noto Sans&amp;quot;, sans-serif, &amp;quot;Helvetica Neue&amp;quot;, Arial, &amp;quot;Apple Color Emoji&amp;quot;, &amp;quot;Segoe UI Emoji&amp;quot;, &amp;quot;Segoe UI Symbol&amp;quot;, &amp;quot;Noto Color Emoji&amp;quot;; text-align: left; white-space-collapse: preserve; background-color: rgb(255, 255, 255);&quot;&gt;&lt;font style=&quot;font-size: 10px;&quot;&gt;Erfahrungsstand und Vorkenntnisse&lt;/font&gt;&lt;/span&gt;" style="points=[[0.25,0,0],[0.5,0,0],[0.75,0,0],[1,0.25,0],[1,0.5,0],[1,0.75,0],[0.75,1,0],[0.5,1,0],[0.25,1,0],[0,0.75,0],[0,0.5,0],[0,0.25,0]];shape=mxgraph.bpmn.task;whiteSpace=wrap;rectStyle=rounded;size=10;html=1;container=1;expand=0;collapsible=0;taskMarker=abstract;" parent="1" vertex="1">
          <mxGeometry x="430.4526658476659" y="2303.943806544715" width="115" height="80" as="geometry" />
        </mxCell>
        <mxCell id="At_IgEc15yCGYcTw2sl6-19" style="edgeStyle=orthogonalEdgeStyle;rounded=0;orthogonalLoop=1;jettySize=auto;html=1;exitX=0.5;exitY=1;exitDx=0;exitDy=0;exitPerimeter=0;entryX=0;entryY=0.5;entryDx=0;entryDy=0;entryPerimeter=0;" parent="1" source="At_IgEc15yCGYcTw2sl6-6" target="At_IgEc15yCGYcTw2sl6-15" edge="1">
          <mxGeometry relative="1" as="geometry" />
        </mxCell>
        <mxCell id="At_IgEc15yCGYcTw2sl6-20" style="edgeStyle=orthogonalEdgeStyle;rounded=0;orthogonalLoop=1;jettySize=auto;html=1;exitX=0.5;exitY=1;exitDx=0;exitDy=0;exitPerimeter=0;entryX=0;entryY=0.5;entryDx=0;entryDy=0;entryPerimeter=0;" parent="1" source="At_IgEc15yCGYcTw2sl6-6" target="At_IgEc15yCGYcTw2sl6-16" edge="1">
          <mxGeometry relative="1" as="geometry" />
        </mxCell>
        <mxCell id="At_IgEc15yCGYcTw2sl6-21" style="edgeStyle=orthogonalEdgeStyle;rounded=0;orthogonalLoop=1;jettySize=auto;html=1;exitX=1;exitY=0.5;exitDx=0;exitDy=0;exitPerimeter=0;entryX=0.25;entryY=0.25;entryDx=0;entryDy=0;entryPerimeter=0;" parent="1" source="At_IgEc15yCGYcTw2sl6-14" target="At_IgEc15yCGYcTw2sl6-7" edge="1">
          <mxGeometry relative="1" as="geometry">
            <Array as="points">
              <mxPoint x="546" y="2165" />
            </Array>
          </mxGeometry>
        </mxCell>
        <mxCell id="At_IgEc15yCGYcTw2sl6-22" style="edgeStyle=orthogonalEdgeStyle;rounded=0;orthogonalLoop=1;jettySize=auto;html=1;exitX=1;exitY=0.5;exitDx=0;exitDy=0;exitPerimeter=0;entryX=0.5;entryY=1;entryDx=0;entryDy=0;entryPerimeter=0;" parent="1" source="At_IgEc15yCGYcTw2sl6-15" target="At_IgEc15yCGYcTw2sl6-7" edge="1">
          <mxGeometry relative="1" as="geometry" />
        </mxCell>
        <mxCell id="At_IgEc15yCGYcTw2sl6-23" style="edgeStyle=orthogonalEdgeStyle;rounded=0;orthogonalLoop=1;jettySize=auto;html=1;exitX=1;exitY=0.5;exitDx=0;exitDy=0;exitPerimeter=0;entryX=0.5;entryY=1;entryDx=0;entryDy=0;entryPerimeter=0;" parent="1" source="At_IgEc15yCGYcTw2sl6-16" target="At_IgEc15yCGYcTw2sl6-7" edge="1">
          <mxGeometry relative="1" as="geometry" />
        </mxCell>
        <mxCell id="XgZ7OTvYV7EqM5-O8hql-8" value="Über&lt;span style=&quot;text-wrap: nowrap;&quot;&gt;prüft&amp;nbsp;die&amp;nbsp;Voraussetzungen des Schülers&lt;/span&gt;" style="text;html=1;align=center;verticalAlign=middle;whiteSpace=wrap;rounded=0;" parent="1" vertex="1">
          <mxGeometry x="245" y="1990" width="510" height="30" as="geometry" />
        </mxCell>
        <mxCell id="XgZ7OTvYV7EqM5-O8hql-9" style="edgeStyle=orthogonalEdgeStyle;rounded=0;orthogonalLoop=1;jettySize=auto;html=1;exitX=0.75;exitY=0.25;exitDx=0;exitDy=0;exitPerimeter=0;entryX=-0.004;entryY=0.592;entryDx=0;entryDy=0;entryPerimeter=0;" parent="1" source="At_IgEc15yCGYcTw2sl6-6" target="At_IgEc15yCGYcTw2sl6-14" edge="1">
          <mxGeometry relative="1" as="geometry">
            <mxPoint x="300" y="2236" as="sourcePoint" />
            <mxPoint x="440" y="2261" as="targetPoint" />
          </mxGeometry>
        </mxCell>
        <mxCell id="fI3-ozC-W1uijajEzl0u-2" style="edgeStyle=orthogonalEdgeStyle;rounded=0;orthogonalLoop=1;jettySize=auto;html=1;" edge="1" parent="1" source="fI3-ozC-W1uijajEzl0u-1" target="At_IgEc15yCGYcTw2sl6-6">
          <mxGeometry relative="1" as="geometry" />
        </mxCell>
        <mxCell id="fI3-ozC-W1uijajEzl0u-1" value="" style="points=[[0.145,0.145,0],[0.5,0,0],[0.855,0.145,0],[1,0.5,0],[0.855,0.855,0],[0.5,1,0],[0.145,0.855,0],[0,0.5,0]];shape=mxgraph.bpmn.event;html=1;verticalLabelPosition=bottom;labelBackgroundColor=#ffffff;verticalAlign=top;align=center;perimeter=ellipsePerimeter;outlineConnect=0;aspect=fixed;outline=standard;symbol=general;" vertex="1" parent="1">
          <mxGeometry x="80" y="2160" width="50" height="50" as="geometry" />
        </mxCell>
        <mxCell id="fI3-ozC-W1uijajEzl0u-3" value="&lt;br&gt;&lt;span style=&quot;color: rgb(0, 0, 0); font-family: Helvetica; font-size: 12px; font-style: normal; font-variant-ligatures: normal; font-variant-caps: normal; font-weight: 400; letter-spacing: normal; orphans: 2; text-align: center; text-indent: 0px; text-transform: none; widows: 2; word-spacing: 0px; -webkit-text-stroke-width: 0px; white-space: normal; background-color: rgb(251, 251, 251); text-decoration-thickness: initial; text-decoration-style: initial; text-decoration-color: initial; display: inline !important; float: none;&quot;&gt;ohne Anmeldung Verlassen&lt;/span&gt;&lt;div&gt;&lt;br/&gt;&lt;/div&gt;" style="points=[[0.145,0.145,0],[0.5,0,0],[0.855,0.145,0],[1,0.5,0],[0.855,0.855,0],[0.5,1,0],[0.145,0.855,0],[0,0.5,0]];shape=mxgraph.bpmn.event;html=1;verticalLabelPosition=bottom;labelBackgroundColor=#ffffff;verticalAlign=top;align=center;perimeter=ellipsePerimeter;outlineConnect=0;aspect=fixed;outline=end;symbol=terminate2;" vertex="1" parent="1">
          <mxGeometry x="860" y="2160" width="50" height="50" as="geometry" />
        </mxCell>
      </root>
    </mxGraphModel>
  </diagram>
</mxfile>
